<svg width="100%" height="100%" viewBox="0 0 94 100" fill="none" xmlns="http://www.w3.org/2000/svg">
<g clip-path="url(#clip0_39_27170)">
<path d="M85.4614 53.8461H77.769V61.5384H85.4614V53.8461Z" fill="#FBE1C8"/>
<path d="M77.7693 69.2308H62.3847V76.9231H23.9232V69.2308H16.2309V61.5384H8.53857V53.8461H16.2309V30.7692H23.9232V38.4615H39.3078V30.7692H54.6924V23.0769H62.3847V38.4615H70.077V61.5384H77.7693V69.2308Z" fill="#FBE1C8"/>
<path d="M31.6156 46.1539H23.9233V53.8462H31.6156V46.1539Z" fill="#2B1A0E"/>
<path d="M54.6923 46.1539H47V53.8462H54.6923V46.1539Z" fill="#2B1A0E"/>
<path d="M85.4617 38.4616V53.8462H77.7693V61.5385H70.077V38.4616H62.3847V23.0769H54.6924V30.7692H39.3078V38.4616H23.9232V30.7692H16.2309H8.53857V23.0769H23.9232V15.3846H16.2309V7.69232H31.6155V15.3846H39.3078V7.69232H62.3847V15.3846H70.077V23.0769H77.7693V38.4616H85.4617Z" fill="#663931"/>
<path d="M16.2309 38.4615H8.53857V53.8462H16.2309V38.4615Z" fill="#663931"/>
<path d="M54.6922 76.9231H31.6152V84.6154H54.6922V76.9231Z" fill="#F6CCA2"/>
<path d="M70.0771 84.6154V100H16.231V84.6154H23.9233V76.9231H31.6156V84.6154H54.6925V76.9231H62.3848V84.6154H70.0771Z" fill="#9C1C28"/>
<path d="M77.7695 84.6154H70.0771V100H77.7695V84.6154Z" fill="black"/>
<path d="M77.7694 76.9231H70.0771V84.6154H62.3848V69.2308H77.7694V76.9231Z" fill="black"/>
<path d="M85.4614 61.5385H77.769V69.2308H85.4614V61.5385Z" fill="black"/>
<path d="M93.1537 38.4615H85.4614V61.5385H93.1537V38.4615Z" fill="black"/>
<path d="M85.4614 23.0769H77.769V38.4615H85.4614V23.0769Z" fill="black"/>
<path d="M77.7695 15.3846H70.0771V23.077H77.7695V15.3846Z" fill="black"/>
<path d="M70.0771 7.69232H62.3848V15.3846H70.0771V7.69232Z" fill="black"/>
<path d="M62.3845 0H39.3076V7.69231H62.3845V0Z" fill="black"/>
<path d="M39.3075 7.69232H31.6152V15.3846H39.3075V7.69232Z" fill="black"/>
<path d="M31.6156 0H16.231V7.69231H31.6156V0Z" fill="black"/>
<path d="M23.9232 15.3846H16.2309V7.69232H8.53857V23.0769H23.9232V15.3846Z" fill="black"/>
<path d="M8.5385 23.0769H0.846191V30.7692H8.5385V23.0769Z" fill="black"/>
<path d="M16.2309 30.7692H8.53857V38.4615H16.2309V30.7692Z" fill="black"/>
<path d="M8.5385 38.4615H0.846191V61.5385H8.5385V38.4615Z" fill="black"/>
<path d="M16.2309 61.5385H8.53857V69.2308H16.2309V61.5385Z" fill="black"/>
<path d="M23.9233 69.2308H16.231V84.6154H23.9233V69.2308Z" fill="black"/>
<path d="M16.2309 84.6154H8.53857V100H16.2309V84.6154Z" fill="black"/>
<path d="M34.1797 65.7436H36.7438H39.3079H41.872H44.4361H49.5643V70.8718H34.1797V65.7436Z" fill="white"/>
</g>
<defs>
<clipPath id="clip0_39_27170">
<rect width="94" height="100" fill="white"/>
</clipPath>
</defs>
</svg>
