<svg width="100%" height="100%" viewBox="0 0 1536 225" fill="none" xmlns="http://www.w3.org/2000/svg">
<g clip-path="url(#clip0_101_36214)">
<path d="M1536 0H0V75H1536V0Z" fill="#FAFCF1"/>
<path d="M1536 75H0V150H1536V75Z" fill="#EEF8E9"/>
<path d="M1536 150H0V225H1536V150Z" fill="#E2F4E1"/>
<path d="M1415.35 50H1382.48V54.11H1370.16V62.33H1366.05V66.43H1361.95V70.54H1353.73V82.87H1349.62V78.75H1345.52V70.54H1341.41V66.43H1333.19V62.33H1316.76V70.54H1308.54V74.65H1304.43V78.75H1300.33V99.29H1296.22V107.51H1292.11V111.62H1288V115.73H1308.54V119.83H1341.41V123.94H1349.62V128.06H1370.16V123.94H1374.27V119.83H1378.38V115.73H1382.49V119.83H1411.24V123.94H1415.35V128.06H1439.99V123.94H1444.11V119.83H1448.21V123.94H1472.86V119.83H1481.07V115.73H1489.29V111.62H1485.19V107.51H1481.07V95.18H1476.96V82.87H1472.86V78.75H1444.11V74.65H1439.99V70.54H1435.89V66.43H1431.78V62.33H1427.67V58.21H1423.57V54.11H1415.35V50Z" fill="#F0FAF3"/>
<path d="M1308.54 74.65V82.86H1304.44V91.08H1308.54V99.29H1324.98V103.4H1304.44V95.19H1300.33V78.75H1304.44V74.65H1308.54Z" fill="#B4E4C3"/>
<path d="M1439.99 74.65V86.98H1435.89V95.19H1419.46V91.08H1415.35V86.98H1423.57V91.08H1431.78V82.86H1435.89V74.65H1439.99Z" fill="#B4E4C3"/>
<path d="M1366.06 66.43H1361.95V70.54H1353.73V91.08H1357.84V95.19H1366.06V99.29H1374.27V95.19H1386.59V91.08H1390.7V82.86H1382.49V86.98H1378.38V91.08H1361.95V86.98H1357.84V74.65H1366.06V66.43Z" fill="#B4E4C3"/>
<path d="M1489.29 111.62H1476.96V115.73H1489.29V111.62Z" fill="#B4E4C3"/>
<path d="M1476.96 119.83H1472.86V123.94H1448.21V119.83H1444.11V123.94H1439.99V128.06H1415.35V123.94H1411.24V119.83H1382.48V115.73H1378.38V119.83H1374.27V123.94H1370.16V128.06H1349.62V123.94H1341.41V119.83H1308.54V115.73H1288V111.62H1292.11V107.51H1300.33V111.62H1333.19V107.52H1337.3V103.4H1341.41V95.19H1349.62V111.62H1353.73V115.73H1366.06V111.62H1374.27V107.52H1378.38V103.4H1386.59V111.62H1390.7V115.73H1403.03V111.62H1415.35V115.73H1419.46V119.83H1431.78V115.73H1439.99V111.62H1444.11V103.4H1448.21V99.29H1452.32V111.62H1456.42V115.73H1464.65V119.83H1468.75V115.73H1476.96V119.83Z" fill="#B4E4C3"/>
<path d="M1333.19 78.76H1320.87V91.08H1333.19V78.76Z" fill="white"/>
<path d="M1320.87 70.54H1316.76V62.33H1333.19V66.44H1341.41V70.54H1345.52V78.76H1349.62V82.86H1341.41V74.65H1337.3V70.54H1329.08V66.44H1320.87V70.54Z" fill="white"/>
<path d="M1468.75 95.19H1456.42V86.98H1464.65V91.08H1468.75V95.19Z" fill="white"/>
<path d="M1468.75 82.86H1472.86V86.98H1476.96V95.19H1472.86V91.08H1468.75V82.86Z" fill="white"/>
<path d="M1468.75 95.19H1456.42V86.98H1464.65V91.08H1468.75V95.19Z" fill="white"/>
<path d="M1468.75 78.75H1448.21V82.86H1468.75V78.75Z" fill="white"/>
<path d="M1411.24 74.65V78.76H1403.03V74.65H1394.81V70.54H1390.7V66.44H1394.81V62.32H1411.24V66.44H1403.03V70.54H1415.35V74.65H1411.24Z" fill="white"/>
<path d="M1415.35 66.44H1407.13V70.54H1415.35V66.44Z" fill="white"/>
<path d="M1439.99 70.54H1435.89V66.43H1431.78V62.33H1427.67V58.21H1423.57V54.11H1415.35V50H1382.48V54.11H1370.16V62.33H1374.27V58.22H1378.38V62.32H1382.49V58.22H1390.7V54.11H1411.24V58.22H1419.46V62.32H1423.57V66.44H1427.67V70.54H1431.78V74.65H1439.99V70.54Z" fill="white"/>
<path d="M1095.34 163.92V141.81H1090.92V137.39H1077.65V128.53H1073.23V124.11H1051.11V128.53H1046.69V141.81H1033.42V146.23H1029V159.5H1037.84V163.92H1064.38V168.34H1082.07V163.92H1095.34Z" fill="#F0FAF3"/>
<path d="M1241.28 150.65V163.92H1236.86V168.34H1223.6V163.92H1219.17V168.34H1197.06V163.92H1152.83V168.34H1113.03V163.92H1108.6V146.23H1113.03V141.81H1130.72V146.23H1135.15V137.39H1139.57V132.96H1143.99V128.53H1148.41V124.11H1152.83V119.69H1157.26V110.84H1166.1V106.42H1170.52V102H1188.22V106.42H1197.06V110.84H1201.49V119.69H1205.91V124.11H1219.17V128.53H1228.02V132.95H1232.44V146.23H1236.86V150.65H1241.28Z" fill="#F0FAF3"/>
<path d="M1090.92 159.5V155.07H1095.34V150.65H1086.49V146.23H1082.07V155.07H1073.23V159.5H1068.81V155.07H1064.38V146.23H1068.81V141.81H1059.95V146.23H1055.53V141.81H1046.69V146.23H1051.11V155.07H1029V159.5H1037.84V163.92H1064.38V168.34H1082.07V163.92H1095.34V159.5H1090.92Z" fill="#B4E4C3"/>
<path d="M1241.28 150.65H1236.86V155.07H1232.44V159.5H1223.6V155.07H1210.33V146.23H1219.17V137.39H1214.75V141.81H1210.33V137.39H1201.49V141.81H1205.91V146.23H1201.49V150.65H1197.06V155.07H1188.22V159.5H1179.37V155.07H1166.1V141.81H1170.52V137.39H1174.94V132.95H1179.37V128.53H1170.52V132.95H1157.26V128.53H1152.83V137.39H1157.26V146.23H1152.83V155.07H1148.41V159.5H1139.57V163.92H1121.87V159.5H1117.45V155.07H1113.03V168.34H1152.83V163.92H1197.06V168.34H1219.17V163.92H1223.6V168.34H1236.86V163.92H1241.28V150.65Z" fill="#B4E4C3"/>
<path d="M1082.07 141.81H1073.23V150.65H1082.07V141.81Z" fill="white"/>
<path d="M1077.65 137.39V128.53H1073.23V124.11H1051.11V128.53H1046.69V137.39H1051.11V132.95H1055.53V128.53H1068.81V132.95H1073.23V137.39H1077.65Z" fill="white"/>
<path d="M1192.64 146.23V132.95H1183.79V137.39H1179.37V146.23H1192.64Z" fill="white"/>
<path d="M1183.79 115.27H1174.94V124.11H1183.79V115.27Z" fill="white"/>
<path d="M1157.26 119.69H1152.83V124.11H1157.26V119.69Z" fill="white"/>
<path d="M1148.41 124.11V128.53H1143.99V132.96H1139.57V137.39H1135.15V146.23H1130.72V141.81H1117.45V146.23H1126.3V150.65H1139.57V141.81H1143.99V137.39H1148.41V132.95H1152.83V124.11H1148.41Z" fill="white"/>
<path d="M1157.26 110.84H1166.1V106.42H1170.52V102H1188.22V106.42H1197.06V110.84H1201.49V119.69H1205.91V124.11H1219.17V128.53H1228.02V132.95H1232.44V146.23H1236.86V150.65H1228.02V137.39H1223.6V132.95H1214.75V128.53H1201.49V124.11H1197.06V115.27H1192.64V110.84H1183.79V106.42H1174.94V110.84H1170.52V115.27H1161.68V119.69H1157.26V110.84Z" fill="white"/>
<path d="M863.51 44.65V61.07H847.07V65.19H867.61V56.97H871.72V48.75H867.61V44.65H863.51Z" fill="#B4E4C3"/>
<path d="M892.26 40.54H888.15V56.97H892.26V61.07H896.37V65.19H904.59V69.29H929.23V65.19H933.34V56.97H937.45V40.53H933.34V52.86H929.23V61.07H925.13V65.19H908.69V61.07H900.48V56.97H896.37V52.86H892.26V40.54Z" fill="#B4E4C3"/>
<path d="M982.64 69.29H978.53V73.4H974.42V69.29H957.99V73.4H949.77V77.51H945.66V81.61H937.45V85.73H921.02V81.61H912.8V77.51H900.48V81.61H892.26V77.51H888.15V73.4H884.05V65.19H879.94V69.29H875.83V73.4H867.61V77.51H855.29V73.4H842.97V69.29H834.76V73.4H810.11V69.29H806V77.51H851.18V81.61H859.4V85.73H871.72V81.61H879.94V85.73H888.15V89.83H900.48V85.73H912.8V89.83H921.02V93.94H945.66V89.83H953.88V85.73H957.99V77.51H982.64V69.29Z" fill="#B4E4C3"/>
<path d="M834.75 81.61V77.5H851.18V81.61H834.75Z" fill="#F0FAF3"/>
<path d="M978.53 69.29H974.42V73.4H978.53V69.29Z" fill="#F0FAF3"/>
<path d="M970.31 69.29V65.19H957.99V61.07H953.88V44.65H949.77V36.43H945.66V32.32H941.56V28.22H937.45V24.11H916.91V28.22H908.69V32.32H904.59V36.43H900.48V44.65H896.37V40.53H892.26V52.86H896.37V56.97H900.48V61.07H908.69V65.19H925.13V61.07H929.23V52.86H933.34V40.53H937.45V56.97H933.34V65.19H929.23V69.29H904.59V65.19H896.37V61.07H892.26V56.97H888.15V52.86H884.05V56.97H875.83V52.86H871.72V56.97H867.61V65.19H847.07V61.07H863.51V40.54H851.18V36.43H847.07V40.53H834.76V44.65H830.64V48.76H826.53V61.07H814.22V65.19H806V69.29H810.11V73.4H834.76V69.29H842.97V73.4H855.29V77.51H867.61V73.4H875.83V69.29H879.94V65.19H884.05V73.4H888.15V77.51H892.26V81.61H900.48V77.51H912.8V81.61H921.02V85.73H937.45V81.61H945.66V77.51H949.77V73.4H957.99V69.29H970.31Z" fill="#F0FAF3"/>
<path d="M851.18 44.65H838.86V52.86H842.97V56.97H847.07V52.86H851.18V44.65Z" fill="white"/>
<path d="M925.13 36.43V48.76H921.02V52.86H908.69V40.53H912.8V36.43H925.13Z" fill="white"/>
<path d="M884.05 52.86H875.83V56.97H884.05V52.86Z" fill="white"/>
<path d="M859.4 36.42H855.29V32.32H842.96V36.42H830.65V40.54H826.53V44.65H822.42V56.96H810.11V61.08H806V65.19H814.22V61.07H826.53V48.76H830.64V44.65H834.76V40.53H847.07V36.43H851.18V40.53H859.4V36.42Z" fill="white"/>
<path d="M978.53 69.29H970.31V65.19H957.99V61.07H953.88V44.65H949.77V36.43H945.66V32.32H941.56V28.22H937.45V24.11H916.91V28.22H908.69V32.32H904.59V36.43H900.48V44.65H896.37V40.53H892.26V36.42H896.37V32.32H900.48V28.21H904.59V24.11H912.8V20H941.56V24.11H945.66V28.22H949.77V32.32H953.88V40.53H957.99V56.97H962.1V61.07H974.42V65.19H978.53V69.29Z" fill="white"/>
<path d="M759.44 168.19V177.03H732.9V181.45H728.48V185.88H710.8V181.45H706.37V177.03H657.72V181.45H644.45V177.03H631.18V181.45H617.91V177.03H613.49V172.61H560.42V168.19H569.26V163.77H591.38V159.34H622.34V146.08H631.18V150.5H635.6V146.08H640.02V154.92H631.18V163.77H644.45V154.92H648.87V150.5H644.45V141.66H648.87V146.08H653.3V150.5H662.14V146.08H666.57V141.66H670.99V150.5H666.57V154.92H653.3V159.34H657.72V163.77H675.41V159.34H684.25V141.66H679.83V137.23H675.41V132.81H670.99V128.38H679.83V132.81H684.25V137.23H706.36V132.81H710.8V141.66H701.94V146.08H697.52V150.5H693.1V154.92H697.52V163.77H701.94V168.19H710.8V163.77H719.64V146.08H724.06V150.5H732.9V154.92H728.48V163.77H737.33V168.19H759.44Z" fill="#B4E4C3"/>
<path d="M560.42 168.19H556V172.61H560.42V168.19Z" fill="#F0FAF3"/>
<path d="M569.26 163.77H560.42V168.19H569.26V163.77Z" fill="#F0FAF3"/>
<path d="M591.38 159.34H573.68V163.77H591.38V159.34Z" fill="#F0FAF3"/>
<path d="M622.34 146.08V159.34H595.8V150.5H600.23V146.08H604.65V141.66H613.49V146.08H617.91V137.23H622.34V132.81H626.76V128.38H635.6V123.96H640.02V132.81H648.87V137.23H657.72V132.81H662.14V119.54H648.87V123.96H640.02V119.54H644.45V115.11H648.87V110.69H653.3V106.27H657.72V101.85H670.99V97.43H693.1V101.85H697.52V106.27H701.94V110.69H706.36V137.23H684.25V132.81H679.83V128.38H670.99V132.81H675.41V137.23H679.83V141.66H684.25V159.34H675.41V163.77H657.72V159.34H653.3V154.92H666.57V150.5H670.99V141.66H666.57V146.08H662.14V150.5H653.3V146.08H648.87V141.66H644.45V150.5H648.87V154.92H644.45V163.77H631.18V154.92H640.02V146.08H635.6V150.5H631.18V146.08H622.34Z" fill="#F0FAF3"/>
<path d="M728.48 146.08H724.06V150.5H728.48V146.08Z" fill="#F0FAF3"/>
<path d="M719.64 163.77H710.8V168.19H701.94V163.77H697.52V154.92H693.1V150.5H697.52V146.08H701.94V141.66H710.8V137.23H719.64V141.66H724.06V146.08H719.64V163.77Z" fill="#F0FAF3"/>
<path d="M732.9 150.5H737.33V154.92H741.75V159.34H746.17V163.77H755.01V168.19H737.33V163.77H728.48V154.92H732.9V150.5Z" fill="#F0FAF3"/>
<path d="M662.14 119.54V132.81H657.72V137.23H648.87V132.81H640.02V123.96H648.87V119.54H662.14Z" fill="white"/>
<path d="M728.48 137.23H724.06V132.81H715.22V128.39H710.8V106.27H706.36V101.85H701.94V97.43H697.52V93H666.57V97.43H653.3V101.85H648.88V106.27H644.45V110.69H640.02V115.11H635.6V119.54H631.18V123.96H622.34V128.39H617.91V137.23H622.34V132.81H626.76V128.38H635.6V123.96H640.02V119.54H644.45V115.11H648.87V110.69H653.3V106.27H657.72V101.85H670.99V97.43H693.1V101.85H697.52V106.27H701.94V110.69H706.36V132.81H710.8V137.23H719.64V141.66H724.06V146.08H728.48V137.23Z" fill="white"/>
<path d="M504.71 83.77V79.34H509.14V88.19H504.71V92.61H487.02V97.03H473.75V92.61H469.33V97.03H442.8V92.61H438.36V101.45H433.94V105.88H425.1V110.3H398.57V105.88H394.14V101.45H389.72V97.03H385.3V101.45H376.45V105.88H367.6V101.45H363.18V97.03H341.07V92.61H336.65V97.03H323.38V92.61H318.96V88.19H310.11V92.61H292.42V88.19H288V74.92H292.42V79.34H296.84V83.77H305.69V79.34H314.53V74.92H318.95V70.5H323.38V66.08H327.8V70.5H332.23V74.92H336.65V79.34H349.91V74.92H354.34V70.5H349.91V66.08H372.02V70.5H367.6V74.92H363.18V83.77H372.02V88.19H376.45V83.77H385.3V79.34H389.72V70.5H380.87V66.08H376.45V61.66H385.3V66.08H398.57V61.66H402.99V57.23H411.83V61.66H407.41V66.08H402.99V70.5H394.14V79.34H398.57V88.19H402.99V92.61H411.83V97.03H425.1V92.61H429.52V88.19H433.94V83.77H438.36V70.5H433.94V66.08H447.22V61.66H451.64V70.5H442.8V74.92H447.22V83.77H451.64V88.19H469.33V83.77H478.17V79.34H482.59V74.92H473.75V66.08H478.17V70.5H495.86V74.92H487.02V79.34H491.44V83.77H504.71Z" fill="#B4E4C3"/>
<path d="M433.94 61.66H429.52V66.08H433.94V61.66Z" fill="#B4E4C3"/>
<path d="M420.68 74.92H416.25V79.34H420.68V74.92Z" fill="#F0FAF3"/>
<path d="M478.17 57.23H473.75V66.08H478.17V70.5H495.86V66.08H482.59V61.66H478.17V57.23Z" fill="#F0FAF3"/>
<path d="M509.14 79.34H504.71V83.77H491.44V79.34H487.02V74.92H495.86V70.5H500.28V74.92H509.14V79.34Z" fill="#F0FAF3"/>
<path d="M473.75 66.08V74.92H482.59V79.34H478.17V83.77H469.33V88.19H451.64V83.77H447.22V74.92H442.8V70.5H451.64V61.66H447.22V66.08H433.94V61.66H429.52V66.08H433.94V70.5H438.36V83.77H433.94V88.19H429.52V92.61H425.1V97.03H411.83V92.61H402.99V88.19H398.57V79.34H394.14V70.5H402.99V66.08H407.41V61.66H411.83V57.23H402.99V61.66H398.57V66.08H385.3V61.66H376.45V66.08H380.87V70.5H389.72V79.34H385.3V83.77H376.45V88.19H372.02V83.77H363.18V74.92H367.6V70.5H372.02V66.08H349.91V70.5H354.34V74.92H349.91V79.34H336.65V74.92H332.23V70.5H327.8V66.08H323.38V70.5H318.95V74.92H314.53V79.34H305.69V83.77H296.84V79.34H292.42V74.92H288V70.5H292.42V66.08H301.26V61.66H318.95V57.23H323.38V52.81H327.8V57.23H336.65V61.66H345.49V57.23H341.07V52.81H363.18V43.96H367.6V39.54H372.02V35.11H376.45V30.69H380.87V26.27H385.3V21.85H394.14V17.43H411.83V21.85H416.25V26.27H425.1V43.96H420.68V48.38H429.52V39.54H442.8V48.38H447.22V52.81H469.33V61.66H464.91V66.08H473.75Z" fill="#F0FAF3"/>
<path d="M429.52 43.96H425.1V48.38H429.52V43.96Z" fill="#F0FAF3"/>
<path d="M341.07 52.81V57.23H345.49V61.66H336.65V57.23H327.8V52.81H341.07Z" fill="white"/>
<path d="M341.07 48.39V52.81H363.18V43.96H367.6V39.54H372.02V35.11H363.18V39.54H354.34V48.39H341.07Z" fill="white"/>
<path d="M376.45 35.11V30.69H380.87V26.27H385.3V21.85H376.45V26.27H372.02V35.11H376.45Z" fill="white"/>
<path d="M385.3 21.85H394.14V17.43H411.83V21.85H416.25V26.27H425.1V43.96H429.52V39.54H442.8V48.38H447.22V52.81H469.33V61.66H464.91V66.08H473.75V57.23H478.17V61.66H482.59V66.08H495.86V70.5H500.28V74.92H509.14V70.5H504.71V66.08H500.28V61.66H495.86V57.23H482.59V52.81H473.75V48.39H451.64V43.96H447.22V35.11H429.52V21.85H420.68V17.43H416.25V13H389.72V17.43H385.3V21.85Z" fill="white"/>
<path d="M425.1 43.96H420.68V48.38H425.1V43.96Z" fill="white"/>
<path d="M420.68 79.34H425.1V70.5H420.68V66.08H416.25V70.5H407.41V79.34H416.25V74.92H420.68V79.34Z" fill="white"/>
<path d="M420.68 79.34H411.83V83.77H420.68V79.34Z" fill="white"/>
<path d="M407.41 48.38V30.69H398.57V26.27H394.14V30.69H389.72V35.11H385.3V39.54H380.87V48.38H385.3V52.81H389.72V57.23H394.14V52.81H402.99V48.38H407.41Z" fill="white"/>
<path d="M167.35 89H134.48V93.11H122.16V101.33H118.05V105.43H113.95V109.54H105.73V121.87H101.62V117.75H97.52V109.54H93.41V105.43H85.19V101.33H68.76V109.54H60.54V113.65H56.43V117.75H52.33V138.29H48.22V146.51H44.11V150.62H40V154.73H60.54V158.83H93.41V162.94H101.62V167.06H122.16V162.94H126.27V158.83H130.38V154.73H134.49V158.83H163.24V162.94H167.35V167.06H191.99V162.94H196.11V158.83H200.21V162.94H224.86V158.83H233.07V154.73H241.29V150.62H237.19V146.51H233.07V134.18H228.96V121.87H224.86V117.75H196.11V113.65H191.99V109.54H187.89V105.43H183.78V101.33H179.67V97.21H175.57V93.11H167.35V89Z" fill="#F0FAF3"/>
<path d="M60.54 113.65V121.86H56.44V130.08H60.54V138.29H76.98V142.4H56.44V134.19H52.33V117.75H56.44V113.65H60.54Z" fill="#B4E4C3"/>
<path d="M191.99 113.65V125.98H187.89V134.19H171.46V130.08H167.35V125.98H175.57V130.08H183.78V121.86H187.89V113.65H191.99Z" fill="#B4E4C3"/>
<path d="M118.06 105.43H113.95V109.54H105.73V130.08H109.84V134.19H118.06V138.29H126.27V134.19H138.59V130.08H142.7V121.86H134.49V125.98H130.38V130.08H113.95V125.98H109.84V113.65H118.06V105.43Z" fill="#B4E4C3"/>
<path d="M241.29 150.62H228.96V154.73H241.29V150.62Z" fill="#B4E4C3"/>
<path d="M228.96 158.83H224.86V162.94H200.21V158.83H196.11V162.94H191.99V167.06H167.35V162.94H163.24V158.83H134.48V154.73H130.38V158.83H126.27V162.94H122.16V167.06H101.62V162.94H93.41V158.83H60.54V154.73H40V150.62H44.11V146.51H52.33V150.62H85.19V146.52H89.3V142.4H93.41V134.19H101.62V150.62H105.73V154.73H118.06V150.62H126.27V146.52H130.38V142.4H138.59V150.62H142.7V154.73H155.03V150.62H167.35V154.73H171.46V158.83H183.78V154.73H191.99V150.62H196.11V142.4H200.21V138.29H204.32V150.62H208.42V154.73H216.65V158.83H220.75V154.73H228.96V158.83Z" fill="#B4E4C3"/>
<path d="M85.19 117.76H72.87V130.08H85.19V117.76Z" fill="white"/>
<path d="M72.87 109.54H68.76V101.33H85.19V105.44H93.41V109.54H97.52V117.76H101.62V121.86H93.41V113.65H89.3V109.54H81.08V105.44H72.87V109.54Z" fill="white"/>
<path d="M220.75 134.19H208.42V125.98H216.65V130.08H220.75V134.19Z" fill="white"/>
<path d="M220.75 121.86H224.86V125.98H228.96V134.19H224.86V130.08H220.75V121.86Z" fill="white"/>
<path d="M220.75 134.19H208.42V125.98H216.65V130.08H220.75V134.19Z" fill="white"/>
<path d="M220.75 117.75H200.21V121.86H220.75V117.75Z" fill="white"/>
<path d="M163.24 113.65V117.76H155.03V113.65H146.81V109.54H142.7V105.44H146.81V101.32H163.24V105.44H155.03V109.54H167.35V113.65H163.24Z" fill="white"/>
<path d="M167.35 105.44H159.13V109.54H167.35V105.44Z" fill="white"/>
<path d="M191.99 109.54H187.89V105.43H183.78V101.33H179.67V97.21H175.57V93.11H167.35V89H134.48V93.11H122.16V101.33H126.27V97.22H130.38V101.32H134.49V97.22H142.7V93.11H163.24V97.22H171.46V101.32H175.57V105.44H179.67V109.54H183.78V113.65H191.99V109.54Z" fill="white"/>
</g>
<defs>
<clipPath id="clip0_101_36214">
<rect width="1536" height="225" fill="white"/>
</clipPath>
</defs>
</svg>
