<svg width="100%" height="100%" viewBox="0 0 1536 225" fill="none" xmlns="http://www.w3.org/2000/svg">
<g clip-path="url(#clip0_102_154319)">
<mask id="mask0_102_154319" style="mask-type:luminance" maskUnits="userSpaceOnUse" x="0" y="0" width="1536" height="225">
<path d="M1536 0H0V225H1536V0Z" fill="white"/>
</mask>
<g mask="url(#mask0_102_154319)">
<path d="M1536 0H0V75H1536V0Z" fill="#FAFCF1"/>
<path d="M1536 75H0V150H1536V75Z" fill="#EEF8E9"/>
<path d="M1536 150H0V225H1536V150Z" fill="#E2F4E1"/>
<path d="M1095.34 163.92V141.81H1090.92V137.39H1077.65V128.53H1073.23V124.11H1051.11V128.53H1046.69V141.81H1033.42V146.23H1029V159.5H1037.84V163.92H1064.38V168.34H1082.07V163.92H1095.34Z" fill="#F0FAF3"/>
<path d="M1241.28 150.65V163.92H1236.86V168.34H1223.6V163.92H1219.17V168.34H1197.06V163.92H1152.83V168.34H1113.03V163.92H1108.6V146.23H1113.03V141.81H1130.72V146.23H1135.15V137.39H1139.57V132.96H1143.99V128.53H1148.41V124.11H1152.83V119.69H1157.26V110.84H1166.1V106.42H1170.52V102H1188.22V106.42H1197.06V110.84H1201.49V119.69H1205.91V124.11H1219.17V128.53H1228.02V132.95H1232.44V146.23H1236.86V150.65H1241.28Z" fill="#F0FAF3"/>
<path d="M1090.92 159.5V155.07H1095.34V150.65H1086.49V146.23H1082.07V155.07H1073.23V159.5H1068.81V155.07H1064.38V146.23H1068.81V141.81H1059.95V146.23H1055.53V141.81H1046.69V146.23H1051.11V155.07H1029V159.5H1037.84V163.92H1064.38V168.34H1082.07V163.92H1095.34V159.5H1090.92Z" fill="#B4E4C3"/>
<path d="M1241.28 150.65H1236.86V155.07H1232.44V159.5H1223.6V155.07H1210.33V146.23H1219.17V137.39H1214.75V141.81H1210.33V137.39H1201.49V141.81H1205.91V146.23H1201.49V150.65H1197.06V155.07H1188.22V159.5H1179.37V155.07H1166.1V141.81H1170.52V137.39H1174.94V132.95H1179.37V128.53H1170.52V132.95H1157.26V128.53H1152.83V137.39H1157.26V146.23H1152.83V155.07H1148.41V159.5H1139.57V163.92H1121.87V159.5H1117.45V155.07H1113.03V168.34H1152.83V163.92H1197.06V168.34H1219.17V163.92H1223.6V168.34H1236.86V163.92H1241.28V150.65Z" fill="#B4E4C3"/>
<path d="M1082.07 141.81H1073.23V150.65H1082.07V141.81Z" fill="white"/>
<path d="M1077.65 137.39V128.53H1073.23V124.11H1051.11V128.53H1046.69V137.39H1051.11V132.95H1055.53V128.53H1068.81V132.95H1073.23V137.39H1077.65Z" fill="white"/>
<path d="M1192.64 146.23V132.95H1183.79V137.39H1179.37V146.23H1192.64Z" fill="white"/>
<path d="M1183.79 115.27H1174.94V124.11H1183.79V115.27Z" fill="white"/>
<path d="M1157.26 119.69H1152.83V124.11H1157.26V119.69Z" fill="white"/>
<path d="M1148.41 124.11V128.53H1143.99V132.96H1139.57V137.39H1135.15V146.23H1130.72V141.81H1117.45V146.23H1126.3V150.65H1139.57V141.81H1143.99V137.39H1148.41V132.95H1152.83V124.11H1148.41Z" fill="white"/>
<path d="M1157.26 110.84H1166.1V106.42H1170.52V102H1188.22V106.42H1197.06V110.84H1201.49V119.69H1205.91V124.11H1219.17V128.53H1228.02V132.95H1232.44V146.23H1236.86V150.65H1228.02V137.39H1223.6V132.95H1214.75V128.53H1201.49V124.11H1197.06V115.27H1192.64V110.84H1183.79V106.42H1174.94V110.84H1170.52V115.27H1161.68V119.69H1157.26V110.84Z" fill="white"/>
<path d="M863.51 44.6499V61.0699H847.07V65.1899H867.61V56.9699H871.72V48.7499H867.61V44.6499H863.51Z" fill="#B4E4C3"/>
<path d="M892.26 40.54H888.15V56.97H892.26V61.07H896.37V65.19H904.59V69.29H929.23V65.19H933.34V56.97H937.45V40.53H933.34V52.86H929.23V61.07H925.13V65.19H908.69V61.07H900.48V56.97H896.37V52.86H892.26V40.54Z" fill="#B4E4C3"/>
<path d="M982.64 69.2899H978.53V73.3999H974.42V69.2899H957.99V73.3999H949.77V77.5099H945.66V81.6099H937.45V85.7299H921.02V81.6099H912.8V77.5099H900.48V81.6099H892.26V77.5099H888.15V73.3999H884.05V65.1899H879.94V69.2899H875.83V73.3999H867.61V77.5099H855.29V73.3999H842.97V69.2899H834.76V73.3999H810.11V69.2899H806V77.5099H851.18V81.6099H859.4V85.7299H871.72V81.6099H879.94V85.7299H888.15V89.8299H900.48V85.7299H912.8V89.8299H921.02V93.9399H945.66V89.8299H953.88V85.7299H957.99V77.5099H982.64V69.2899Z" fill="#B4E4C3"/>
<path d="M834.75 81.61V77.5H851.18V81.61H834.75Z" fill="#F0FAF3"/>
<path d="M978.53 69.29H974.42V73.4H978.53V69.29Z" fill="#F0FAF3"/>
<path d="M970.31 69.2901V65.1901H957.99V61.0701H953.88V44.6501H949.77V36.4301H945.66V32.3201H941.56V28.2201H937.45V24.1101H916.91V28.2201H908.69V32.3201H904.59V36.4301H900.48V44.6501H896.37V40.5301H892.26V52.8601H896.37V56.9701H900.48V61.0701H908.69V65.1901H925.13V61.0701H929.23V52.8601H933.34V40.5301H937.45V56.9701H933.34V65.1901H929.23V69.2901H904.59V65.1901H896.37V61.0701H892.26V56.9701H888.15V52.8601H884.05V56.9701H875.83V52.8601H871.72V56.9701H867.61V65.1901H847.07V61.0701H863.51V40.5401H851.18V36.4301H847.07V40.5301H834.76V44.6501H830.64V48.7601H826.53V61.0701H814.22V65.1901H806V69.2901H810.11V73.4001H834.76V69.2901H842.97V73.4001H855.29V77.5101H867.61V73.4001H875.83V69.2901H879.94V65.1901H884.05V73.4001H888.15V77.5101H892.26V81.6101H900.48V77.5101H912.8V81.6101H921.02V85.7301H937.45V81.6101H945.66V77.5101H949.77V73.4001H957.99V69.2901H970.31Z" fill="#F0FAF3"/>
<path d="M851.18 44.6499H838.86V52.8599H842.97V56.9699H847.07V52.8599H851.18V44.6499Z" fill="white"/>
<path d="M925.13 36.4299V48.7599H921.02V52.8599H908.69V40.5299H912.8V36.4299H925.13Z" fill="white"/>
<path d="M884.05 52.8601H875.83V56.9701H884.05V52.8601Z" fill="white"/>
<path d="M859.4 36.4201H855.29V32.3201H842.96V36.4201H830.65V40.5401H826.53V44.6501H822.42V56.9601H810.11V61.0801H806V65.1901H814.22V61.0701H826.53V48.7601H830.64V44.6501H834.76V40.5301H847.07V36.4301H851.18V40.5301H859.4V36.4201Z" fill="white"/>
<path d="M978.53 69.29H970.31V65.19H957.99V61.07H953.88V44.65H949.77V36.43H945.66V32.32H941.56V28.22H937.45V24.11H916.91V28.22H908.69V32.32H904.59V36.43H900.48V44.65H896.37V40.53H892.26V36.42H896.37V32.32H900.48V28.21H904.59V24.11H912.8V20H941.56V24.11H945.66V28.22H949.77V32.32H953.88V40.53H957.99V56.97H962.1V61.07H974.42V65.19H978.53V69.29Z" fill="white"/>
<path d="M759.44 168.19V177.03H732.9V181.45H728.48V185.88H710.8V181.45H706.37V177.03H657.72V181.45H644.45V177.03H631.18V181.45H617.91V177.03H613.49V172.61H560.42V168.19H569.26V163.77H591.38V159.34H622.34V146.08H631.18V150.5H635.6V146.08H640.02V154.92H631.18V163.77H644.45V154.92H648.87V150.5H644.45V141.66H648.87V146.08H653.3V150.5H662.14V146.08H666.57V141.66H670.99V150.5H666.57V154.92H653.3V159.34H657.72V163.77H675.41V159.34H684.25V141.66H679.83V137.23H675.41V132.81H670.99V128.38H679.83V132.81H684.25V137.23H706.36V132.81H710.8V141.66H701.94V146.08H697.52V150.5H693.1V154.92H697.52V163.77H701.94V168.19H710.8V163.77H719.64V146.08H724.06V150.5H732.9V154.92H728.48V163.77H737.33V168.19H759.44Z" fill="#B4E4C3"/>
<path d="M560.42 168.19H556V172.61H560.42V168.19Z" fill="#F0FAF3"/>
<path d="M569.26 163.77H560.42V168.19H569.26V163.77Z" fill="#F0FAF3"/>
<path d="M591.38 159.34H573.68V163.77H591.38V159.34Z" fill="#F0FAF3"/>
<path d="M622.34 146.08V159.34H595.8V150.5H600.23V146.08H604.65V141.66H613.49V146.08H617.91V137.23H622.34V132.81H626.76V128.38H635.6V123.96H640.02V132.81H648.87V137.23H657.72V132.81H662.14V119.54H648.87V123.96H640.02V119.54H644.45V115.11H648.87V110.69H653.3V106.27H657.72V101.85H670.99V97.4299H693.1V101.85H697.52V106.27H701.94V110.69H706.36V137.23H684.25V132.81H679.83V128.38H670.99V132.81H675.41V137.23H679.83V141.66H684.25V159.34H675.41V163.77H657.72V159.34H653.3V154.92H666.57V150.5H670.99V141.66H666.57V146.08H662.14V150.5H653.3V146.08H648.87V141.66H644.45V150.5H648.87V154.92H644.45V163.77H631.18V154.92H640.02V146.08H635.6V150.5H631.18V146.08H622.34Z" fill="#F0FAF3"/>
<path d="M728.48 146.08H724.06V150.5H728.48V146.08Z" fill="#F0FAF3"/>
<path d="M719.64 163.77H710.8V168.19H701.94V163.77H697.52V154.92H693.1V150.5H697.52V146.08H701.94V141.66H710.8V137.23H719.64V141.66H724.06V146.08H719.64V163.77Z" fill="#F0FAF3"/>
<path d="M732.9 150.5H737.33V154.92H741.75V159.34H746.17V163.77H755.01V168.19H737.33V163.77H728.48V154.92H732.9V150.5Z" fill="#F0FAF3"/>
<path d="M662.14 119.54V132.81H657.72V137.23H648.87V132.81H640.02V123.96H648.87V119.54H662.14Z" fill="white"/>
<path d="M728.48 137.23H724.06V132.81H715.22V128.39H710.8V106.27H706.36V101.85H701.94V97.43H697.52V93H666.57V97.43H653.3V101.85H648.88V106.27H644.45V110.69H640.02V115.11H635.6V119.54H631.18V123.96H622.34V128.39H617.91V137.23H622.34V132.81H626.76V128.38H635.6V123.96H640.02V119.54H644.45V115.11H648.87V110.69H653.3V106.27H657.72V101.85H670.99V97.43H693.1V101.85H697.52V106.27H701.94V110.69H706.36V132.81H710.8V137.23H719.64V141.66H724.06V146.08H728.48V137.23Z" fill="white"/>
<path d="M504.71 83.77V79.34H509.14V88.19H504.71V92.61H487.02V97.03H473.75V92.61H469.33V97.03H442.8V92.61H438.36V101.45H433.94V105.88H425.1V110.3H398.57V105.88H394.14V101.45H389.72V97.03H385.3V101.45H376.45V105.88H367.6V101.45H363.18V97.03H341.07V92.61H336.65V97.03H323.38V92.61H318.96V88.19H310.11V92.61H292.42V88.19H288V74.92H292.42V79.34H296.84V83.77H305.69V79.34H314.53V74.92H318.95V70.5H323.38V66.08H327.8V70.5H332.23V74.92H336.65V79.34H349.91V74.92H354.34V70.5H349.91V66.08H372.02V70.5H367.6V74.92H363.18V83.77H372.02V88.19H376.45V83.77H385.3V79.34H389.72V70.5H380.87V66.08H376.45V61.66H385.3V66.08H398.57V61.66H402.99V57.23H411.83V61.66H407.41V66.08H402.99V70.5H394.14V79.34H398.57V88.19H402.99V92.61H411.83V97.03H425.1V92.61H429.52V88.19H433.94V83.77H438.36V70.5H433.94V66.08H447.22V61.66H451.64V70.5H442.8V74.92H447.22V83.77H451.64V88.19H469.33V83.77H478.17V79.34H482.59V74.92H473.75V66.08H478.17V70.5H495.86V74.92H487.02V79.34H491.44V83.77H504.71Z" fill="#B4E4C3"/>
<path d="M433.94 61.6599H429.52V66.0799H433.94V61.6599Z" fill="#B4E4C3"/>
<path d="M420.68 74.9199H416.25V79.3399H420.68V74.9199Z" fill="#F0FAF3"/>
<path d="M478.17 57.23H473.75V66.08H478.17V70.5H495.86V66.08H482.59V61.66H478.17V57.23Z" fill="#F0FAF3"/>
<path d="M509.14 79.34H504.71V83.77H491.44V79.34H487.02V74.92H495.86V70.5H500.28V74.92H509.14V79.34Z" fill="#F0FAF3"/>
<path d="M473.75 66.0799V74.9199H482.59V79.3399H478.17V83.7699H469.33V88.1899H451.64V83.7699H447.22V74.9199H442.8V70.4999H451.64V61.6599H447.22V66.0799H433.94V61.6599H429.52V66.0799H433.94V70.4999H438.36V83.7699H433.94V88.1899H429.52V92.6099H425.1V97.0299H411.83V92.6099H402.99V88.1899H398.57V79.3399H394.14V70.4999H402.99V66.0799H407.41V61.6599H411.83V57.2299H402.99V61.6599H398.57V66.0799H385.3V61.6599H376.45V66.0799H380.87V70.4999H389.72V79.3399H385.3V83.7699H376.45V88.1899H372.02V83.7699H363.18V74.9199H367.6V70.4999H372.02V66.0799H349.91V70.4999H354.34V74.9199H349.91V79.3399H336.65V74.9199H332.23V70.4999H327.8V66.0799H323.38V70.4999H318.95V74.9199H314.53V79.3399H305.69V83.7699H296.84V79.3399H292.42V74.9199H288V70.4999H292.42V66.0799H301.26V61.6599H318.95V57.2299H323.38V52.8099H327.8V57.2299H336.65V61.6599H345.49V57.2299H341.07V52.8099H363.18V43.9599H367.6V39.5399H372.02V35.1099H376.45V30.6899H380.87V26.2699H385.3V21.8499H394.14V17.4299H411.83V21.8499H416.25V26.2699H425.1V43.9599H420.68V48.3799H429.52V39.5399H442.8V48.3799H447.22V52.8099H469.33V61.6599H464.91V66.0799H473.75Z" fill="#F0FAF3"/>
<path d="M429.52 43.96H425.1V48.38H429.52V43.96Z" fill="#F0FAF3"/>
<path d="M341.07 52.8101V57.2301H345.49V61.6601H336.65V57.2301H327.8V52.8101H341.07Z" fill="white"/>
<path d="M341.07 48.3901V52.8101H363.18V43.9601H367.6V39.5401H372.02V35.1101H363.18V39.5401H354.34V48.3901H341.07Z" fill="white"/>
<path d="M376.45 35.1101V30.6901H380.87V26.2701H385.3V21.8501H376.45V26.2701H372.02V35.1101H376.45Z" fill="white"/>
<path d="M385.3 21.85H394.14V17.43H411.83V21.85H416.25V26.27H425.1V43.96H429.52V39.54H442.8V48.38H447.22V52.81H469.33V61.66H464.91V66.08H473.75V57.23H478.17V61.66H482.59V66.08H495.86V70.5H500.28V74.92H509.14V70.5H504.71V66.08H500.28V61.66H495.86V57.23H482.59V52.81H473.75V48.39H451.64V43.96H447.22V35.11H429.52V21.85H420.68V17.43H416.25V13H389.72V17.43H385.3V21.85Z" fill="white"/>
<path d="M425.1 43.96H420.68V48.38H425.1V43.96Z" fill="white"/>
<path d="M420.68 79.3401H425.1V70.5001H420.68V66.0801H416.25V70.5001H407.41V79.3401H416.25V74.9201H420.68V79.3401Z" fill="white"/>
<path d="M420.68 79.3401H411.83V83.7701H420.68V79.3401Z" fill="white"/>
<path d="M407.41 48.38V30.69H398.57V26.27H394.14V30.69H389.72V35.11H385.3V39.54H380.87V48.38H385.3V52.81H389.72V57.23H394.14V52.81H402.99V48.38H407.41Z" fill="white"/>
<path d="M167.35 89H134.48V93.11H122.16V101.33H118.05V105.43H113.95V109.54H105.73V121.87H101.62V117.75H97.52V109.54H93.41V105.43H85.19V101.33H68.76V109.54H60.54V113.65H56.43V117.75H52.33V138.29H48.22V146.51H44.11V150.62H40V154.73H60.54V158.83H93.41V162.94H101.62V167.06H122.16V162.94H126.27V158.83H130.38V154.73H134.49V158.83H163.24V162.94H167.35V167.06H191.99V162.94H196.11V158.83H200.21V162.94H224.86V158.83H233.07V154.73H241.29V150.62H237.19V146.51H233.07V134.18H228.96V121.87H224.86V117.75H196.11V113.65H191.99V109.54H187.89V105.43H183.78V101.33H179.67V97.21H175.57V93.11H167.35V89Z" fill="#F0FAF3"/>
<path d="M60.54 113.65V121.86H56.44V130.08H60.54V138.29H76.98V142.4H56.44V134.19H52.33V117.75H56.44V113.65H60.54Z" fill="#B4E4C3"/>
<path d="M191.99 113.65V125.98H187.89V134.19H171.46V130.08H167.35V125.98H175.57V130.08H183.78V121.86H187.89V113.65H191.99Z" fill="#B4E4C3"/>
<path d="M118.06 105.43H113.95V109.54H105.73V130.08H109.84V134.19H118.06V138.29H126.27V134.19H138.59V130.08H142.7V121.86H134.49V125.98H130.38V130.08H113.95V125.98H109.84V113.65H118.06V105.43Z" fill="#B4E4C3"/>
<path d="M241.29 150.62H228.96V154.73H241.29V150.62Z" fill="#B4E4C3"/>
<path d="M228.96 158.83H224.86V162.94H200.21V158.83H196.11V162.94H191.99V167.06H167.35V162.94H163.24V158.83H134.48V154.73H130.38V158.83H126.27V162.94H122.16V167.06H101.62V162.94H93.41V158.83H60.54V154.73H40V150.62H44.11V146.51H52.33V150.62H85.19V146.52H89.3V142.4H93.41V134.19H101.62V150.62H105.73V154.73H118.06V150.62H126.27V146.52H130.38V142.4H138.59V150.62H142.7V154.73H155.03V150.62H167.35V154.73H171.46V158.83H183.78V154.73H191.99V150.62H196.11V142.4H200.21V138.29H204.32V150.62H208.42V154.73H216.65V158.83H220.75V154.73H228.96V158.83Z" fill="#B4E4C3"/>
<path d="M85.19 117.76H72.87V130.08H85.19V117.76Z" fill="white"/>
<path d="M72.87 109.54H68.76V101.33H85.19V105.44H93.41V109.54H97.52V117.76H101.62V121.86H93.41V113.65H89.3V109.54H81.08V105.44H72.87V109.54Z" fill="white"/>
<path d="M220.75 134.19H208.42V125.98H216.65V130.08H220.75V134.19Z" fill="white"/>
<path d="M220.75 121.86H224.86V125.98H228.96V134.19H224.86V130.08H220.75V121.86Z" fill="white"/>
<path d="M220.75 134.19H208.42V125.98H216.65V130.08H220.75V134.19Z" fill="white"/>
<path d="M220.75 117.75H200.21V121.86H220.75V117.75Z" fill="white"/>
<path d="M163.24 113.65V117.76H155.03V113.65H146.81V109.54H142.7V105.44H146.81V101.32H163.24V105.44H155.03V109.54H167.35V113.65H163.24Z" fill="white"/>
<path d="M167.35 105.44H159.13V109.54H167.35V105.44Z" fill="white"/>
<path d="M191.99 109.54H187.89V105.43H183.78V101.33H179.67V97.21H175.57V93.11H167.35V89H134.48V93.11H122.16V101.33H126.27V97.22H130.38V101.32H134.49V97.22H142.7V93.11H163.24V97.22H171.46V101.32H175.57V105.44H179.67V109.54H183.78V113.65H191.99V109.54Z" fill="white"/>
<path d="M1449.62 66.37H1436.5V62H1418.99V57.62H1410.25V53.24H1397.12V48.86H1379.63V44.48H1375.24V40.11H1370.87V31.36H1366.5V26.98H1340.25V31.36H1331.5V35.74H1327.12V40.12H1322.75V48.86H1318.37V53.24H1314.01V44.49H1300.87V48.87H1296.5V53.25H1292.13V62H1283.38V66.37H1279V75.12H1283.38V83.87H1287.75V88.25H1314.01V83.87H1322.75V88.25H1327.13V92.62H1335.88V97H1366.5V92.62H1375.24V83.88H1392.75V79.49H1397.12V75.12H1401.5V79.49H1449.62V66.37Z" fill="#F0FAF3"/>
<path d="M1292.13 53.25V66.38H1309.63V62H1296.51V53.25H1292.13Z" fill="#B4E4C3"/>
<path d="M1366.5 35.75H1370.87V40.13H1375.24V44.51H1379.63V48.88H1375.24V53.26H1370.87V48.88H1366.5V35.76V35.75Z" fill="#B4E4C3"/>
<path d="M1366.5 53.25V57.63H1357.75V62.01H1349V57.63H1344.62V53.25H1340.26V62H1344.62V66.38H1362.13V62H1370.87V53.25H1366.5Z" fill="#B4E4C3"/>
<path d="M1283.38 79.49H1292.13V83.88H1305.25V79.49H1309.63V75.12H1314.01V70.74H1318.38V62H1322.75V75.12H1327.13V79.49H1331.49V83.88H1340.26V88.26H1362.13V83.88H1370.87V79.49H1375.24V75.12H1379.63V66.38H1383.99V62H1388.37V66.38H1392.75V70.75H1410.25V75.13H1471.49V79.5H1392.75V83.89H1375.24V92.63H1366.5V97.01H1335.88V92.63H1327.11L1327.13 88.26H1322.75V83.88H1314.01V88.26H1287.75V83.88H1283.38V79.49Z" fill="#B4E4C3"/>
<path d="M1335.88 70.75V79.49H1353.37V75.12H1349V70.74H1335.88V70.75Z" fill="white"/>
<path d="M1357.75 44.5099V53.2499H1349V48.8699H1344.62V40.1299H1353.37V44.5099H1357.75Z" fill="white"/>
<path d="M1296.5 48.87V53.25H1305.25V48.87H1309.63V53.25H1314.01V44.5H1300.87V48.88H1296.5V48.87Z" fill="white"/>
<path d="M1370.87 31.38H1366.5V27H1340.25V31.38H1331.5V35.76H1327.12V40.14H1322.75V44.52H1331.49V40.14H1340.26V35.76H1344.62V31.38H1362.13V35.76H1370.87V31.38Z" fill="white"/>
<path d="M1445.24 75.1101V70.7401H1432.12V66.3701H1414.62V61.9901H1405.87V57.6101H1392.75V53.2301H1383.99V48.8501H1397.11V53.2301H1410.25V57.6101H1418.99V61.9901H1436.5V66.3701H1449.62V75.1001H1445.24V75.1101Z" fill="white"/>
</g>
</g>
<defs>
<clipPath id="clip0_102_154319">
<rect width="1536" height="225" fill="white"/>
</clipPath>
</defs>
</svg>
