<svg width="100%" height="100%" viewBox="0 0 102 74" fill="none" xmlns="http://www.w3.org/2000/svg">
<path d="M58.1429 51H51V58.1429H58.1429V51Z" fill="#FCFCFA"/>
<path d="M43.8571 58.1429H36.7142V65.2857H43.8571V58.1429Z" fill="#48AD6A"/>
<path d="M36.7143 51H29.5714V58.1429H36.7143V51Z" fill="#FCFCFA"/>
<path d="M93.8571 15.2857V29.5714H79.5714V22.4286H86.7143V15.2857H93.8571Z" fill="#218365"/>
<path d="M72.4286 29.5714V43.8571H65.2857V51H58.1429V58.1428H43.8572V65.2857H65.2857V58.1428H72.4286V51H79.5715V29.5714H72.4286Z" fill="#218365"/>
<path d="M15.2857 15.2857V22.4286H22.4285V29.5714H8.14282V15.2857H15.2857Z" fill="#218365"/>
<path d="M36.7143 15.2857H29.5714V22.4286H36.7143V15.2857Z" fill="#9ADCAF"/>
<path d="M58.1428 8.14288H36.7142V15.2857H58.1428V8.14288Z" fill="#9ADCAF"/>
<path d="M22.4286 15.2857H15.2858V22.4286H22.4286V15.2857Z" fill="#48AD6A"/>
<path d="M86.7143 15.2857H79.5714V22.4286H86.7143V15.2857Z" fill="#48AD6A"/>
<path d="M58.1429 8.14288V15.2857H36.7143V22.4286H22.4286V51H65.2857V43.8572H72.4286V29.5715H79.5714V22.4286H72.4286V15.2857H65.2857V8.14288H58.1429Z" fill="#48AD6A"/>
<path d="M58.1429 29.5714H51V43.8571H58.1429V29.5714Z" fill="#111518"/>
<path d="M36.7143 29.5714H29.5714V43.8571H36.7143V29.5714Z" fill="#111518"/>
<path d="M50.9999 51H36.7142V58.1429H50.9999V51Z" fill="#111518"/>
<path d="M65.2857 65.2857H36.7142V72.4286H65.2857V65.2857Z" fill="#111518"/>
<path d="M36.7143 58.1429H29.5714V65.2857H36.7143V58.1429Z" fill="#111518"/>
<path d="M29.5714 51H22.4286V58.1429H29.5714V51Z" fill="#111518"/>
<path d="M8.14282 29.5714V36.7143H15.2857V51H22.4285V29.5714H8.14282Z" fill="#111518"/>
<path d="M22.4286 15.2857H8.14286V29.5715H1V8.14288H22.4286V15.2857Z" fill="#111518"/>
<path d="M29.5714 15.2857H22.4286V22.4286H29.5714V15.2857Z" fill="#111518"/>
<path d="M36.7143 8.14288H29.5714V15.2857H36.7143V8.14288Z" fill="#111518"/>
<path d="M65.2857 1H36.7142V8.14286H65.2857V1Z" fill="#111518"/>
<path d="M72.4286 8.14288H65.2858V15.2857H72.4286V8.14288Z" fill="#111518"/>
<path d="M79.5714 15.2857H72.4286V22.4286H79.5714V15.2857Z" fill="#111518"/>
<path d="M93.8571 29.5715V15.2857H79.5714V8.14288H101V29.5715H93.8571Z" fill="#111518"/>
<path d="M93.8571 36.7143H86.7143V51H79.5714V29.5714H93.8571V36.7143Z" fill="#111518"/>
<path d="M79.5714 51H72.4286V58.1429H79.5714V51Z" fill="#111518"/>
<path d="M72.4286 58.1429H65.2858V65.2857H72.4286V58.1429Z" fill="#111518"/>
</svg>
