<svg width="100%" height="100%" viewBox="0 0 244 100" fill="none" xmlns="http://www.w3.org/2000/svg">
<g clip-path="url(#clip0_2_2029)">
<path d="M40 30H33.3333V36.6667H40V30Z" fill="#FCFCFA"/>
<path d="M33.3333 23.3333H13.3333V30H33.3333V23.3333Z" fill="#FCFCFA"/>
<path d="M13.3334 30H6.66669V36.6667H13.3334V30Z" fill="#FCFCFA"/>
<path d="M6.66667 36.6667H0V63.3333H6.66667V36.6667Z" fill="#FCFCFA"/>
<path d="M13.3334 63.3333H6.66669V70H13.3334V63.3333Z" fill="#FCFCFA"/>
<path d="M33.3333 70H13.3333V76.6667H33.3333V70Z" fill="#FCFCFA"/>
<path d="M20 56.6667H33.3333V70H40V50H20V56.6667Z" fill="#FCFCFA"/>
<path d="M42.1333 30H35.4667V36.6667H42.1333V30Z" fill="#FCFCFA"/>
<path d="M35.4667 23.3333H15.4667V30H35.4667V23.3333Z" fill="#FCFCFA"/>
<path d="M15.4667 30H8.80005V36.6667H15.4667V30Z" fill="#FCFCFA"/>
<path d="M8.80003 36.6667H2.13336V63.3333H8.80003V36.6667Z" fill="#FCFCFA"/>
<path d="M15.4667 63.3333H8.80005V70H15.4667V63.3333Z" fill="#FCFCFA"/>
<path d="M35.4667 70H15.4667V76.6667H35.4667V70Z" fill="#FCFCFA"/>
<path d="M22.1334 56.6667H35.4667V70H42.1334V50H22.1334V56.6667Z" fill="#FCFCFA"/>
<path d="M76.6667 30H56.6667V70H76.6667V76.6667H50V23.3333H76.6667V30Z" fill="#FCFCFA"/>
<path d="M90 36.6667H83.3333V63.3333H90V36.6667Z" fill="#FCFCFA"/>
<path d="M83.3334 30H76.6667V36.6667H83.3334V30Z" fill="#FCFCFA"/>
<path d="M83.3334 63.3333H76.6667V70H83.3334V63.3333Z" fill="#FCFCFA"/>
<path d="M78.8 30H58.8V70H78.8V76.6667H52.1334V23.3333H78.8V30Z" fill="#FCFCFA"/>
<path d="M92.1333 36.6667H85.4667V63.3333H92.1333V36.6667Z" fill="#FCFCFA"/>
<path d="M85.4667 30H78.8V36.6667H85.4667V30Z" fill="#FCFCFA"/>
<path d="M85.4667 63.3333H78.8V70H85.4667V63.3333Z" fill="#FCFCFA"/>
<path d="M183.333 70H173.333V80H183.333V70Z" fill="#FCFCFA"/>
<path d="M153.333 70H143.333V80H153.333V70Z" fill="#FCFCFA"/>
<path d="M233.333 20V40H213.333V30H223.333V20H233.333Z" fill="#218365"/>
<path d="M203.333 40V60H193.333V70H183.333V80H163.333V90H193.333V80H203.333V70H213.333V40H203.333Z" fill="#218365"/>
<path d="M123.333 20V30H133.333V40H113.333V20H123.333Z" fill="#218365"/>
<path d="M153.333 20H143.333V30H153.333V20Z" fill="#9ADCAF"/>
<path d="M183.333 10H153.333V20H183.333V10Z" fill="#9ADCAF"/>
<path d="M133.333 20H123.333V30H133.333V20Z" fill="#48AD6A"/>
<path d="M223.333 20H213.333V30H223.333V20Z" fill="#48AD6A"/>
<path d="M163.333 80H153.333V90H163.333V80Z" fill="#48AD6A"/>
<path d="M183.333 10V20H153.333V30H133.333V70H193.333V60H203.333V40H213.333V30H203.333V20H193.333V10H183.333Z" fill="#48AD6A"/>
<path d="M183.333 40H173.333V60H183.333V40Z" fill="#111518"/>
<path d="M153.333 40H143.333V60H153.333V40Z" fill="#111518"/>
<path d="M173.333 70H153.333V80H173.333V70Z" fill="#111518"/>
<path d="M193.333 90H153.333V100H193.333V90Z" fill="#111518"/>
<path d="M153.333 80H143.333V90H153.333V80Z" fill="#111518"/>
<path d="M143.333 70H133.333V80H143.333V70Z" fill="#111518"/>
<path d="M113.333 40V50H123.333V70H133.333V40H113.333Z" fill="#111518"/>
<path d="M133.333 20H113.333V40H103.333V10H133.333V20Z" fill="#111518"/>
<path d="M143.333 20H133.333V30H143.333V20Z" fill="#111518"/>
<path d="M153.333 10H143.333V20H153.333V10Z" fill="#111518"/>
<path d="M193.333 0H153.333V10H193.333V0Z" fill="#111518"/>
<path d="M203.333 10H193.333V20H203.333V10Z" fill="#111518"/>
<path d="M213.333 20H203.333V30H213.333V20Z" fill="#111518"/>
<path d="M233.333 40V20H213.333V10H243.333V40H233.333Z" fill="#111518"/>
<path d="M233.333 50H223.333V70H213.333V40H233.333V50Z" fill="#111518"/>
<path d="M213.333 70H203.333V80H213.333V70Z" fill="#111518"/>
<path d="M203.333 80H193.333V90H203.333V80Z" fill="#111518"/>
</g>
<defs>
<clipPath id="clip0_2_2029">
<rect width="243.333" height="100" fill="white"/>
</clipPath>
</defs>
</svg>
