<svg width="100%" height="100%" viewBox="0 0 177 74" fill="none" xmlns="http://www.w3.org/2000/svg">
<g clip-path="url(#clip0_102_109992)">
<path d="M57.5099 24.6499V41.0699H41.0699V45.1899H61.6099V36.9699H65.7199V28.7499H61.6099V24.6499H57.5099Z" fill="#B4E4C3"/>
<path d="M86.26 20.54H82.15V36.97H86.26V41.07H90.37V45.19H98.59V49.29H123.23V45.19H127.34V36.97H131.45V20.53H127.34V32.86H123.23V41.07H119.13V45.19H102.69V41.07H94.48V36.97H90.37V32.86H86.26V20.54Z" fill="#B4E4C3"/>
<path d="M176.64 49.2899H172.53V53.3999H168.42V49.2899H151.99V53.3999H143.77V57.5099H139.66V61.6099H131.45V65.7299H115.02V61.6099H106.8V57.5099H94.48V61.6099H86.26V57.5099H82.15V53.3999H78.05V45.1899H73.94V49.2899H69.83V53.3999H61.61V57.5099H49.29V53.3999H36.97V49.2899H28.76V53.3999H4.11V49.2899H0V57.5099H45.18V61.6099H53.4V65.7299H65.72V61.6099H73.94V65.7299H82.15V69.8299H94.48V65.7299H106.8V69.8299H115.02V73.9399H139.66V69.8299H147.88V65.7299H151.99V57.5099H176.64V49.2899Z" fill="#B4E4C3"/>
<path d="M28.75 61.61V57.5H45.18V61.61H28.75Z" fill="#F0FAF3"/>
<path d="M172.53 49.29H168.42V53.4H172.53V49.29Z" fill="#F0FAF3"/>
<path d="M164.31 49.2901V45.1901H151.99V41.0701H147.88V24.6501H143.77V16.4301H139.66V12.3201H135.56V8.22011H131.45V4.11011H110.91V8.22011H102.69V12.3201H98.59V16.4301H94.48V24.6501H90.37V20.5301H86.26V32.8601H90.37V36.9701H94.48V41.0701H102.69V45.1901H119.13V41.0701H123.23V32.8601H127.34V20.5301H131.45V36.9701H127.34V45.1901H123.23V49.2901H98.59V45.1901H90.37V41.0701H86.26V36.9701H82.15V32.8601H78.05V36.9701H69.83V32.8601H65.72V36.9701H61.61V45.1901H41.07V41.0701H57.51V20.5401H45.18V16.4301H41.07V20.5301H28.76V24.6501H24.64V28.7601H20.53V41.0701H8.22V45.1901H0V49.2901H4.11V53.4001H28.76V49.2901H36.97V53.4001H49.29V57.5101H61.61V53.4001H69.83V49.2901H73.94V45.1901H78.05V53.4001H82.15V57.5101H86.26V61.6101H94.48V57.5101H106.8V61.6101H115.02V65.7301H131.45V61.6101H139.66V57.5101H143.77V53.4001H151.99V49.2901H164.31Z" fill="#F0FAF3"/>
<path d="M45.18 24.6499H32.86V32.8599H36.97V36.9699H41.07V32.8599H45.18V24.6499Z" fill="white"/>
<path d="M119.13 16.4299V28.7599H115.02V32.8599H102.69V20.5299H106.8V16.4299H119.13Z" fill="white"/>
<path d="M78.05 32.8601H69.83V36.9701H78.05V32.8601Z" fill="white"/>
<path d="M53.4 16.4201H49.29V12.3201H36.96V16.4201H24.65V20.5401H20.53V24.6501H16.42V36.9601H4.11V41.0801H0V45.1901H8.22V41.0701H20.53V28.7601H24.64V24.6501H28.76V20.5301H41.07V16.4301H45.18V20.5301H53.4V16.4201Z" fill="white"/>
<path d="M172.53 49.29H164.31V45.19H151.99V41.07H147.88V24.65H143.77V16.43H139.66V12.32H135.56V8.22H131.45V4.11H110.91V8.22H102.69V12.32H98.59V16.43H94.48V24.65H90.37V20.53H86.26V16.42H90.37V12.32H94.48V8.21H98.59V4.11H106.8V0H135.56V4.11H139.66V8.22H143.77V12.32H147.88V20.53H151.99V36.97H156.1V41.07H168.42V45.19H172.53V49.29Z" fill="white"/>
</g>
<defs>
<clipPath id="clip0_102_109992">
<rect width="176.64" height="73.94" fill="white"/>
</clipPath>
</defs>
</svg>
