<svg width="100%" height="100%" viewBox="0 0 181 66" fill="none" xmlns="http://www.w3.org/2000/svg">
<g clip-path="url(#clip0_102_109980)">
<path d="M160.21 36.97L147.89 36.98V32.87H131.45V28.76H123.24V24.65H110.91V20.54H94.49V16.43L90.37 16.44V12.33H86.27V4.11H82.16V0H57.51L57.52 4.11H49.3L49.29 8.22H45.18L45.19 12.33H41.08V20.54H36.97L36.98 24.65H32.87V16.43H20.54V20.54H16.43L16.44 24.65H12.33V32.87H4.11V36.97H0V45.19H4.11V53.41H8.22V57.52H32.87V53.41H41.08V57.52H45.19L45.18 61.62H53.41V65.73H82.16V61.62H90.37V53.41H106.81V49.29H110.91V45.19H115.03L115.02 49.29H160.21V36.97Z" fill="#F0FAF3"/>
<path d="M12.3301 24.6499V36.9799H28.7601V32.8699H16.4401V24.6499H12.3301Z" fill="#B4E4C3"/>
<path d="M82.1602 8.21997H86.2701V12.33H90.3702V16.44L94.4902 16.43V20.54H90.3702V24.65H86.2701V20.54H82.1602V8.21997Z" fill="#B4E4C3"/>
<path d="M82.16 24.6499V28.7599H73.95V32.8699H65.73V28.7599H61.62V24.6499H57.52V32.8699H61.62V36.9799H78.06V32.8699H86.27V24.6499H82.16Z" fill="#B4E4C3"/>
<path d="M4.10986 49.2901H12.3299V53.4101H24.6499V49.2901H28.7599V45.1901H32.8699V41.0801H36.9799V32.8701H41.0799V45.1901H45.1899V49.2901H49.2899V53.4101H57.5199V57.5201H78.0599V53.4101H86.2699V49.2901H90.3699V45.1901H94.4899V36.9801H98.5899V32.8701H102.7V36.9801H106.81V41.0801H123.24V45.1901L180.75 45.1801V49.2901H106.81V53.4101H90.3699V61.6201H82.1599V65.7301H53.4099V61.6201H45.1799L45.1899 57.5201H41.0799V53.4101H32.8699V57.5201H8.21986V53.4101H4.10986V49.2901Z" fill="#B4E4C3"/>
<path d="M53.4099 41.0801V49.2901H69.8299V45.1901H65.7299V41.0801H53.4099Z" fill="white"/>
<path d="M73.9501 16.4401V24.6501H65.7301V20.5401H61.6201V12.3301H69.8301V16.4401H73.9501Z" fill="white"/>
<path d="M16.4299 20.5399L16.4399 24.6499H24.6499V20.5399H28.7599V24.6499H32.8699V16.4299H20.5399V20.5399H16.4299Z" fill="white"/>
<path d="M86.2701 4.11H82.1601V0H57.5101L57.5201 4.11H49.3001L49.2901 8.22H45.1801L45.1901 12.33H41.0801V16.44H49.2901V12.33H57.5201V8.22H61.6201V4.11H78.0601V8.22H86.2701V4.11Z" fill="white"/>
<path d="M156.1 45.18L156.11 41.08H143.78V36.98H127.35V32.87H119.13V28.76H106.81V24.65H98.59V20.54H110.91V24.65H123.24V28.76H131.45V32.87H147.89V36.98L160.21 36.97V45.18H156.1Z" fill="white"/>
</g>
<defs>
<clipPath id="clip0_102_109980">
<rect width="180.75" height="65.73" fill="white"/>
</clipPath>
</defs>
</svg>
