<svg width="100%" height="100%" viewBox="0 0 447 117" fill="none" xmlns="http://www.w3.org/2000/svg">
<g clip-path="url(#clip0_102_110005)">
<path d="M446.81 97.74H442.15V102.39H432.84V107.04H414.23V102.39H409.57V107.04H400.27V111.7H363.03V116.35H335.11L335.1 111.7H311.83V116.35H283.91V111.7H274.61L274.6 107.04H255.98V102.39H246.67V97.74H242.02V102.39H237.36V107.04H228.05V111.7H223.4V116.35H204.79V111.7H186.17V107.04H148.93V102.39H134.97V97.74H125.66V102.39H121.01V107.04H93.09L93.08 102.39H69.81L69.8 97.74H23.27V102.39H4.65V93.08H0V74.47H4.65V69.82H13.96V65.15H41.88V69.82H46.53L46.54 55.85L51.19 55.84V41.88H55.84L55.85 32.58H60.5V27.92H65.15V23.27H74.46V18.62H107.04V23.27H111.7V27.92H116.35V37.23H121.01V51.19H130.31L130.32 46.54H134.97V41.88H139.63V32.58H144.28V23.27H148.93V18.62H153.58L153.59 13.96H158.24V9.31H167.55V4.65H176.87V0H204.79V4.65H209.44V9.31H218.75V13.96H223.4V18.61L228.05 18.62V27.92H232.71V32.58H237.36V41.88H242.02V46.54H251.32V51.19H255.98V55.84L265.29 55.85V51.19H283.91V60.5H288.56L288.57 55.85H293.22V51.19H321.14V55.84L325.8 55.85V65.15H330.45V60.5H335.1L335.11 51.19H344.41L344.42 46.54H353.72V41.88H381.65V46.53L386.31 46.54V51.19H390.96V55.84L395.61 55.85V60.5H400.27V65.15H404.92V74.47H418.88V79.13H428.19V83.78H437.5V88.43H442.15V93.08L446.81 93.09V97.74Z" fill="#F0FAF3"/>
<path d="M446.81 93.0899L432.84 93.0799V97.7399H423.54V93.0799H418.88V88.4299H414.23V93.0799H404.92V97.7399H400.27V102.39H390.96V97.7399H386.31V88.4299H381.65V93.0799H372.34V97.7399H363.03V102.39H353.72V97.7399H339.76V93.0799H335.1V83.7799H325.8V79.1199H321.14V74.4699H316.49V83.7799H321.14V93.0799H311.83V97.7399H297.87V102.39H288.56V97.7399H279.26V93.0799H265.29V88.4299H260.63V83.7799H255.98V74.4699H269.95V69.8099H279.26V65.1499H265.29V69.8099H242.02V65.1499H232.71V69.8099H237.36V74.4699H246.67V79.1199H242.02V83.7799H237.36V88.4299H228.05V93.0799H214.09V88.4299H204.79V83.7799H195.48V79.1199H190.82V60.4999H204.79V55.8399H209.44V51.1899H218.75V41.8799H209.44V46.5299H204.79V51.1899H200.13V55.8399H176.86V51.1899H172.2V60.4999H181.52V65.1499H176.86V74.4699H172.2V79.1199H167.55V83.7799H162.89V88.4299H134.97V83.7799H125.66V74.4699H139.62V69.8099H144.28V60.4999H139.62V65.1499H134.97V69.8099H116.35V65.1499H107.04V69.8099H111.7V74.4699H121.01V79.1199H116.35V83.7799H107.04V88.4299H97.74V93.0799H74.46V88.4299H69.8V83.7799H65.15V79.1199H60.5V74.4699H69.8V69.8099H51.19V79.1199H46.53V83.7799H37.23V88.4299H23.27V93.0799H18.61V88.4299H4.65V83.7799H0V93.0799H4.65V102.39H23.27V97.7399H69.8L69.81 102.39H93.08L93.09 107.04H121.01V102.39H125.66V97.7399H134.97V102.39H148.93V107.04H186.17V111.7H204.79V116.35H223.4V111.7H228.05V107.04H237.36V102.39H242.02V97.7399H246.67V102.39H255.98V107.04H274.6L274.61 111.7H283.91V116.35H311.83V111.7H335.1L335.11 116.35H363.03V111.7H400.27V107.04H404.92V102.39H414.23V107.04H432.84V102.39H437.5V97.7399H446.81V93.0899Z" fill="#B4E4C3"/>
<path d="M344.41 74.47H335.1V83.78H339.76V79.12H344.41V74.47Z" fill="#B4E4C3"/>
<path d="M172.2 46.53H167.55V51.19H172.2V46.53Z" fill="#B4E4C3"/>
<path d="M390.96 74.47H386.31V79.12H372.34V74.47H363.03V60.5H367.69V69.81H377V74.47H381.65V69.81H390.96V74.47Z" fill="white"/>
<path d="M4.6499 74.4699H18.6099V69.8199H27.9199V74.4699H46.5299V69.8199H41.8799V65.1499H13.9599V69.8199H4.6499V74.4699Z" fill="white"/>
<path d="M432.84 93.0799L437.5 93.0899V83.7799H428.19V79.1299H418.88V74.4699H404.92V65.1499H400.27V60.4999H395.61V55.8499L390.96 55.8399V51.1899H386.31V46.5399L381.65 46.5299V41.8799H353.72V46.5399L367.69 46.5299H372.34V51.1899H381.65V55.8399H386.31V60.4999H390.96V69.8099H400.27V79.1199H414.23V83.7799H423.54V88.4299H432.84V93.0799Z" fill="white"/>
<path d="M344.42 46.54L344.41 51.19H353.72V46.54H344.42Z" fill="white"/>
<path d="M344.41 55.8399H339.76V60.4999H335.1L335.11 51.1899H344.41V55.8399Z" fill="white"/>
<path d="M51.19 65.1501H46.54V55.8501L51.19 55.8401V41.8801H55.84L55.85 32.5801H60.5V27.9201H65.15V23.2701H74.46V18.6201H107.04V23.2701H111.7V27.9201H116.35V37.2301H121.01V55.8401H107.04V60.5001H97.74V55.8401H93.08V51.1901H111.7V46.5301H116.35V41.8801H111.7V32.5701H107.04V27.9201H93.08V23.2701H79.11V27.9201H69.8V32.5701H65.15V37.2301H60.5V46.5301H55.84V60.5001H51.19V65.1501Z" fill="white"/>
<path d="M335.1 60.5V69.81H321.14V60.5H316.49V55.85H297.88L297.87 65.15H293.22V69.81H302.53V79.12H297.87V74.47H288.56V65.15H279.26V55.85H269.95V60.5H251.32V55.84H246.67V51.19H237.36V55.84H232.71V60.5H223.4V51.19H232.71V37.23H228.05V32.57H223.4V23.27H218.75V18.61H214.09V13.96H204.79V9.31H172.2V13.96H162.89V18.61H158.24V23.27H153.58V37.23H162.89V27.92H167.55V41.88H158.24V46.53H148.93V51.19H144.28V55.84H107.04V60.5H97.74V55.84H93.08V51.19H111.7V46.53H116.35V41.88H111.7V32.57H107.04V27.92H93.08V23.27H79.11V27.92H69.8V32.57H65.15V37.23H60.5V46.53H55.84V60.5H51.19V65.15H46.54V55.85L51.19 55.84V41.88H55.84L55.85 32.58H60.5V27.92H65.15V23.27H74.46V18.62H107.04V23.27H111.7V27.92H116.35V37.23H121.01V51.19H130.31L130.32 46.54H134.97V41.88H139.63V32.58H144.28V23.27H148.93V18.62H153.58L153.59 13.96H158.24V9.31H167.55V4.65H176.87V0H204.79V4.65H209.44V9.31H218.75V13.96H223.4V18.61L228.05 18.62V27.92H232.71V32.58H237.36V41.88H242.02V46.54H251.32V51.19H255.98V55.84L265.29 55.85V51.19H283.91V60.5H288.56L288.57 55.85H293.22V51.19H321.14V55.84L325.8 55.85V65.15H330.45V60.5H335.1Z" fill="white"/>
</g>
<defs>
<clipPath id="clip0_102_110005">
<rect width="446.81" height="116.35" fill="white"/>
</clipPath>
</defs>
</svg>
