<svg width="100%" height="100%" viewBox="0 0 20 20" fill="none" xmlns="http://www.w3.org/2000/svg">
<g clip-path="url(#clip0_6_3690)">
<path d="M8.6 2.9H5.7V5.8H8.6V2.9Z" fill="#E1F5E7"/>
<path d="M14.3 2.9H8.6V5.7H2.9V11.4H5.7V14.3H11.4V11.4H14.3V2.9Z" fill="#9ADCAF"/>
<path d="M17.1 5.7H14.3V11.4H11.4V14.3H5.7V17.1H14.3V14.3H17.1V5.7Z" fill="#48AD6A"/>
<path d="M20 5.7H17.1V14.3L20 14.3V5.7Z" fill="#05373B"/>
<path d="M14.3 17.1H5.7V20H14.3L14.3 17.1Z" fill="#05373B"/>
<path d="M2.9 5.7H0V14.3H2.9V5.7Z" fill="#05373B"/>
<path d="M14.3 0H5.7V2.9H14.3L14.3 0Z" fill="#05373B"/>
<path d="M17.2 2.9H14.3V5.8H17.2V2.9Z" fill="#05373B"/>
<path d="M17.2 14.3H14.3V17.2H17.2V14.3Z" fill="#05373B"/>
<path d="M5.8 14.3L2.9 14.3V17.2H5.8V14.3Z" fill="#05373B"/>
<path d="M2.9 2.9V5.7H5.7V2.9" fill="#05373B"/>
<path d="M2.9 11.4V14.3L5.7 14.3V11.4" fill="#48AD6A"/>
</g>
<defs>
<clipPath id="clip0_6_3690">
<rect width="20" height="20" fill="white"/>
</clipPath>
</defs>
</svg>
