<svg width="22" height="22" viewBox="0 0 22 22" fill="none" xmlns="http://www.w3.org/2000/svg">
<path d="M9.6 3.9H6.7V6.8H9.6V3.9Z" fill="#FCFCFA"/>
<path d="M15.3 3.9H9.6V6.7H3.9V12.4H6.7V15.3H12.4V12.4H15.3V3.9Z" fill="#FAFCF1"/>
<path d="M18.1 6.7H15.3V12.4H12.4V15.3H6.7V18.1H15.3V15.3H18.1V6.7Z" fill="#48AD6A"/>
<path d="M21 6.7H18.1V15.3L21 15.3V6.7Z" fill="#05373B"/>
<path d="M15.3 18.1H6.7V21H15.3L15.3 18.1Z" fill="#05373B"/>
<path d="M3.9 6.7H1V15.3H3.9V6.7Z" fill="#05373B"/>
<path d="M15.3 1H6.7V3.9H15.3L15.3 1Z" fill="#05373B"/>
<path d="M18.2 3.9H15.3V6.8H18.2V3.9Z" fill="#05373B"/>
<path d="M18.2 15.3H15.3V18.2H18.2V15.3Z" fill="#05373B"/>
<path d="M6.8 15.3L3.9 15.3V18.2H6.8V15.3Z" fill="#05373B"/>
<path d="M3.9 3.9V6.7H6.7V3.9" fill="#05373B"/>
<path d="M3.9 12.4V15.3L6.7 15.3V12.4" fill="#48AD6A"/>
</svg>
