<svg width="100%" height="100%" viewBox="0 0 24 24" fill="none" xmlns="http://www.w3.org/2000/svg">
<g clip-path="url(#clip0_97_1381)">
<path d="M10.6 4.90002H7.70001V7.80002H10.6V4.90002Z" fill="#FAFCF1"/>
<path d="M16.3 4.90002H10.6V7.70002H4.90002V13.4H7.70002V16.3H13.4V13.4H16.3V4.90002Z" fill="#E1F5E7"/>
<path d="M19.1 7.69995H16.3V13.4H13.4V16.3H7.70001V19.1H16.3V16.3H19.1V7.69995Z" fill="#48AD6A"/>
<path d="M22 7.69995H19.1V16.3H22V7.69995Z" fill="#05373B"/>
<path d="M16.3 19.1H7.70001V22H16.3V19.1Z" fill="#05373B"/>
<path d="M4.9 7.69995H2V16.3H4.9V7.69995Z" fill="#05373B"/>
<path d="M16.3 2H7.70001V4.9H16.3V2Z" fill="#05373B"/>
<path d="M19.2 4.90002H16.3V7.80002H19.2V4.90002Z" fill="#05373B"/>
<path d="M19.2 16.3H16.3V19.2H19.2V16.3Z" fill="#05373B"/>
<path d="M7.80002 16.3H4.90002V19.2H7.80002V16.3Z" fill="#05373B"/>
<path d="M4.90002 4.90002V7.70002H7.70002V4.90002" fill="#05373B"/>
<path d="M4.90002 13.4V16.3H7.70002V13.4" fill="#48AD6A"/>
</g>
<defs>
<clipPath id="clip0_97_1381">
<rect width="20" height="20" fill="white" transform="translate(2 2)"/>
</clipPath>
</defs>
</svg>
