<svg width="100%" height="100%" viewBox="0 0 24 24" fill="none" xmlns="http://www.w3.org/2000/svg">
<g clip-path="url(#clip0_84_9342)">
<path d="M3 3V5.25H4.125V6.375H5.25V7.5H6.375V8.625H7.5V9.75H8.625V10.875H9.75V13.125H8.625V14.25H7.5V15.375H6.375V16.5H5.25V17.625H4.125V18.75H3V21H5.25V19.875H6.375V18.75H7.5V17.625H8.625V16.5H9.75V15.375H10.875V14.25H13.125V15.375H14.25V16.5H15.375V17.625H16.5V18.75H17.625V19.875H18.75V21H21V18.75H19.875V17.625H18.75V16.5H17.625V15.375H16.5V14.25H15.375V13.125H14.25V10.875H15.375V9.75H16.5V8.625H17.625V7.5H18.75V6.375H19.875V5.25H21V3H18.75V4.125H17.625V5.25H16.5V6.375H15.375V7.5H14.25V8.625H13.125V9.75H10.875V8.625H9.75V7.5H8.625V6.375H7.5V5.25H6.375V4.125H5.25V3H3Z" fill="#FCFCFA"/>
</g>
<defs>
<clipPath id="clip0_84_9342">
<rect width="18" height="18" fill="white" transform="translate(3 3)"/>
</clipPath>
</defs>
</svg>
