<svg width="100%" height="100%" viewBox="0 0 24 24" fill="none" xmlns="http://www.w3.org/2000/svg">
<path d="M11.114 13.5412H10.2422V12.6581H9.35905V11.7862H8.48717V10.9031H7.60405V10.0312H6.73217V9.14813H4.97717V10.9031H5.84905V11.7862H6.73217V12.6581H7.60405V13.5412H8.48717V14.4131H9.35905V15.2963H10.2422V16.1681H11.114V17.0512H12.869V16.1681H13.7522V15.2963H14.624V14.4131H15.5072V13.5412H16.379V12.6581H17.2622V11.7862H18.134V10.9031H19.0172V9.14813H17.2622V10.0312H16.379V10.9031H15.5072V11.7862H14.624V12.6581H13.7522V13.5412H12.869V3H11.114V13.5412Z" fill="currentColor"/>
<path d="M20.7834 19.245H3.21655V21H20.7834V19.245Z" fill="currentColor"/>
</svg>
