<svg width="100%" height="100%" viewBox="0 0 24 24" fill="none" xmlns="http://www.w3.org/2000/svg">
<g clip-path="url(#clip0_84_9367)">
<path d="M10.897 13.5386H10.0258V12.6534H9.14051V11.7822H8.26932V10.897H7.38407V10.0258H6.51288V9.14051H4.75644V10.897H5.62763V11.7822H6.51288V12.6534H7.38407V13.5386H8.26932V14.4098H9.14051V15.2951H10.0258V16.1663H10.897V17.0515H12.6534V16.1663H13.5386V15.2951H14.4098V14.4098H15.2951V13.5386H16.1663V12.6534H17.0515V11.7822H17.9227V10.897H18.808V9.14051H17.0515V10.0258H16.1663V10.897H15.2951V11.7822H14.4098V12.6534H13.5386V13.5386H12.6534V3H10.897V13.5386Z" fill="#FCFCFA"/>
<path d="M20.5644 19.2435H3V21H20.5644V19.2435Z" fill="#FCFCFA"/>
</g>
<defs>
<clipPath id="clip0_84_9367">
<rect width="17.5644" height="18" fill="white" transform="translate(3 3)"/>
</clipPath>
</defs>
</svg>
