<svg width="100%" height="100%" viewBox="0 0 24 24" fill="none" xmlns="http://www.w3.org/2000/svg">
<path d="M11.1148 13.5386H10.2436V12.6534H9.35832V11.7822H8.48712V10.897H7.60188V10.0258H6.73068V9.14051H4.97424V10.897H5.84544V11.7822H6.73068V12.6534H7.60188V13.5386H8.48712V14.4098H9.35832V15.2951H10.2436V16.1663H11.1148V17.0515H12.8712V16.1663H13.7564V15.2951H14.6276V14.4098H15.5129V13.5386H16.3841V12.6534H17.2693V11.7822H18.1405V10.897H19.0258V9.14051H17.2693V10.0258H16.3841V10.897H15.5129V11.7822H14.6276V12.6534H13.7564V13.5386H12.8712V3H11.1148V13.5386Z" fill="currentColor"/>
<path d="M20.7822 19.2435H3.2178V21H20.7822V19.2435Z" fill="currentColor"/>
</svg>
