<svg width="100%" height="100%" viewBox="0 0 24 24" fill="none" xmlns="http://www.w3.org/2000/svg">
  <path d="M16.0909 3H21V7.90909H19.3636V6.27273H17.7273V4.63636H16.0909V3Z" fill="currentColor"/>
  <path d="M19.3636 11.1818H17.7273V17.7272H19.3636V11.1818Z" fill="currentColor"/>
  <path d="M16.0909 19.3636H6.27274V21H16.0909V19.3636Z" fill="currentColor"/>
  <path d="M4.63636 7.90906H3V17.7272H4.63636V7.90906Z" fill="currentColor"/>
  <path d="M12.8182 4.63635H6.27274V6.27272H12.8182V4.63635Z" fill="currentColor"/>
  <path d="M6.27272 6.27271H4.63635V7.90907H6.27272V6.27271Z" fill="currentColor"/>
  <path d="M6.27272 17.7273H4.63635V19.3637H6.27272V17.7273Z" fill="currentColor"/>
  <path d="M17.7273 17.7273H16.0909V19.3637H17.7273V17.7273Z" fill="currentColor"/>
  <path d="M17.7273 6.27271H16.0909V7.90907H17.7273V6.27271Z" fill="currentColor"/>
  <path d="M16.0909 7.90906H14.4546V9.54542H16.0909V7.90906Z" fill="currentColor"/>
  <path d="M14.4545 9.54541H12.8182V11.1818H14.4545V9.54541Z" fill="currentColor"/>
  <path d="M12.8182 11.1818H11.1818V12.8181H12.8182V11.1818Z" fill="currentColor"/>
  <path d="M11.1818 12.8182H9.54544V14.4546H11.1818V12.8182Z" fill="currentColor"/>
</svg>
