<svg width="100%" height="100%" viewBox="0 0 24 24" fill="none" xmlns="http://www.w3.org/2000/svg">
<g clip-path="url(#clip0_84_9361)">
<path d="M10.0435 3H14.7391V3.78261H16.3043V4.56522H17.8696V5.34783H18.6522V6.13043H19.4348V6.91304H20.2174V8.47826H21V10.0435H21.7826V14.7391H21V16.3043H20.2174V17.8696H19.4348V18.6522H18.6522V19.4348H17.8696V20.2174H17.087V21H15.5217V18.6522V17.8696H14.7391V17.087H16.3043V16.3043H17.087V15.5217H17.8696V14.7391H18.6522V6.91304H17.8696V6.13043H17.087V6.91304H16.3043V7.69565H9.26087V6.91304H8.47826V6.13043H7.69565V6.91304H6.91304V14.7391H7.69565V15.5217H8.47826V16.3043H9.26087V17.087H10.8261V17.8696H10.0435V18.6522H8.47826V17.8696H7.69565V16.3043H6.91304V15.5217H6.13043V14.7391H5.34783V16.3043H6.13043V17.087H6.91304V18.6522H7.69565V19.4348H8.47826V20.2174H10.0435V21H7.69565V20.2174H6.91304V19.4348H6.13043V18.6522H5.34783V17.8696H4.56522V16.3043H3.78261V14.7391H3V10.0435H3.78261V8.47826H4.56522V6.91304H5.34783V6.13043H6.13043V5.34783H6.91304V4.56522H8.47826V3.78261H10.0435V3Z" fill="#FCFCFA"/>
</g>
<defs>
<clipPath id="clip0_84_9361">
<rect width="18.7826" height="18" fill="white" transform="translate(3 3)"/>
</clipPath>
</defs>
</svg>
