<svg width="100%" height="100%" viewBox="0 0 24 24" fill="none" xmlns="http://www.w3.org/2000/svg">
<path d="M9.65218 3H14.3478V3.78261H15.9131V4.56522H17.4783V5.34783H18.2609V6.13043H19.0435V6.91304H19.8261V8.47826H20.6087V10.0435H21.3913V14.7391H20.6087V16.3043H19.8261V17.8696H19.0435V18.6522H18.2609V19.4348H17.4783V20.2174H16.6957V21H15.1304V18.6522V17.8696H14.3478V17.087H15.9131V16.3043H16.6957V15.5217H17.4783V14.7391H18.2609V6.91304H17.4783V6.13043H16.6957V6.91304H15.9131V7.69565H8.86957V6.91304H8.08696V6.13043H7.30436V6.91304H6.52175V14.7391H7.30436V15.5217H8.08696V16.3043H8.86957V17.087H10.4348V17.8696H9.65218V18.6522H8.08696V17.8696H7.30436V16.3043H6.52175V15.5217H5.73914V14.7391H4.95653V16.3043H5.73914V17.087H6.52175V18.6522H7.30436V19.4348H8.08696V20.2174H9.65218V21H7.30436V20.2174H6.52175V19.4348H5.73914V18.6522H4.95653V17.8696H4.17392V16.3043H3.39131V14.7391H2.6087V10.0435H3.39131V8.47826H4.17392V6.91304H4.95653V6.13043H5.73914V5.34783H6.52175V4.56522H8.08696V3.78261H9.65218V3Z" fill="currentColor"/>
</svg>
