<svg width="100%" height="100%" viewBox="0 0 24 24" fill="none" xmlns="http://www.w3.org/2000/svg">
<path d="M9.75281 3.37964H14.2528V4.12776H15.7547V4.87589H17.2566V5.62401H18.0047V6.37214H18.7528V7.12026H19.5009V8.62214H20.2491V10.124H20.9972V14.624H20.2491V16.1259H19.5009V17.6278H18.7528V18.3759H18.0047V19.124H17.2566V19.8721H16.5084V20.6203H15.0066V17.6221H14.2584V16.874H15.7603V16.1259H16.5084V15.3778H17.2566V14.6296H18.0047V7.13151H17.2566V6.38339H16.5084V7.13151H15.7603V7.87964H9.01031V7.13151H8.26218V6.38339H7.51406V7.13151H6.76593V14.6296H7.51406V15.3778H8.26218V16.1259H9.01031V16.874H10.5122V17.6221H9.76406V18.3703H8.26218V17.6221H7.51406V16.1203H6.76593V15.3721H6.01781V14.624H5.26968V16.1259H6.01781V16.874H6.76593V18.3759H7.51406V19.124H8.26218V19.8721H9.76406V20.6203H7.51406V19.8721H6.76593V19.124H6.01781V18.3759H5.26968V17.6278H4.52156V16.1259H3.77343V14.624H3.00281V10.124H3.75093V8.62214H4.49906V7.12026H5.24718V6.37214H5.99531V5.62401H6.74343V4.87589H8.24531V4.12776H9.74718V3.37964H9.75281Z" fill="currentColor"/>
</svg>
