<svg width="100%" height="100%" viewBox="0 0 20 20" fill="none" xmlns="http://www.w3.org/2000/svg">
<path d="M19 4.75V15.25H17.5V6.25H16V4.75H4V6.25H2.5V15.25H1V4.75H2.5V3.25H17.5V4.75H19Z" fill="currentColor" />
<path d="M17.5 15.25H2.5V16.75H17.5V15.25Z" fill="currentColor" />
<path d="M11.5 10.75H8.5V12.25H11.5V10.75Z" fill="currentColor" />
<path d="M16 6.25H14.5V7.75H16V6.25Z" fill="currentColor" />
<path d="M14.5 7.75H13V9.25H14.5V7.75Z" fill="currentColor" />
<path d="M13 9.25H11.5V10.75H13V9.25Z" fill="currentColor" />
<path d="M8.5 9.25H7V10.75H8.5V9.25Z" fill="currentColor" />
<path d="M5.5 6.25H4V7.75H5.5V6.25Z" fill="currentColor" />
<path d="M7 7.75H5.5V9.25H7V7.75Z" fill="currentColor" />
</svg>
