<svg width="100%" height="100%" viewBox="0 0 24 24" fill="none" xmlns="http://www.w3.org/2000/svg">
<g clip-path="url(#clip0_84_9373)">
<path d="M21 6.5V17H19.5V8H18V6.5H6V8H4.5V17H3V6.5H4.5V5H19.5V6.5H21Z" fill="#FCFCFA"/>
<path d="M19.5 17H4.5V18.5H19.5V17Z" fill="#FCFCFA"/>
<path d="M13.5 12.5H10.5V14H13.5V12.5Z" fill="#FCFCFA"/>
<path d="M18 8H16.5V9.5H18V8Z" fill="#FCFCFA"/>
<path d="M16.5 9.5H15V11H16.5V9.5Z" fill="#FCFCFA"/>
<path d="M15 11H13.5V12.5H15V11Z" fill="#FCFCFA"/>
<path d="M10.5 11H9V12.5H10.5V11Z" fill="#FCFCFA"/>
<path d="M7.5 8H6V9.5H7.5V8Z" fill="#FCFCFA"/>
<path d="M9 9.5H7.5V11H9V9.5Z" fill="#FCFCFA"/>
</g>
<defs>
<clipPath id="clip0_84_9373">
<rect width="18" height="13.5" fill="white" transform="translate(3 5)"/>
</clipPath>
</defs>
</svg>
