<svg width="100%" height="100%" viewBox="0 0 24 24" fill="none" xmlns="http://www.w3.org/2000/svg">
<g clip-path="url(#clip0_84_9347)">
<path d="M5.0025 5.99756V7.00256H6V8.00006H6.9975V8.99756H8.0025V10.0026H9V11.0001H9.9975V11.9976H11.0025L10.995 13.0026H12.9975V11.9976H14.0025V11.0001H15V10.0026H15.9975V8.99756H17.0025V8.00006H18V7.00256H18.9975V5.99756H21V17.0001H18.9975V17.9976L5.0025 18.0876L4.995 17.0001H3V5.99756H5.0025Z" fill="#FCFCFA"/>
<path d="M18.9975 5V5.9975H18V7.0025H17.0025V8H15.9975V8.9975H15V10.0025H14.0025V11H12.9975V11.9975H11.0025V11H9.9975V10.0025H9V8.9975H8.0025V8H6.9975V7.0025H6V5.9975H5.0025V5H18.9975Z" fill="#FCFCFA"/>
</g>
<defs>
<clipPath id="clip0_84_9347">
<rect width="18" height="13.0875" fill="white" transform="translate(3 5)"/>
</clipPath>
</defs>
</svg>
