<svg width="100%" height="100%" viewBox="0 0 24 24" fill="none" xmlns="http://www.w3.org/2000/svg">
<path d="M5.0025 6.45374V7.45874H6V8.45624H6.9975V9.45374H8.0025V10.4587H9V11.4562H9.9975V12.4537H11.0025L10.995 13.4587H12.9975V12.4537H14.0025V11.4562H15V10.4587H15.9975V9.45374H17.0025V8.45624H18V7.45874H18.9975V6.45374H21V17.4562H18.9975V18.4537L5.0025 18.5437L4.995 17.4562H3V6.45374H5.0025Z" fill="#FCFCFA"/>
<path d="M18.9975 5.45618V6.45368H18V7.45868H17.0025V8.45618H15.9975V9.45368H15V10.4587H14.0025V11.4562H12.9975V12.4537H11.0025V11.4562H9.9975V10.4587H9V9.45368H8.0025V8.45618H6.9975V7.45868H6V6.45368H5.0025V5.45618H18.9975Z" fill="currentColor"/>
</svg>
