<svg width="100%" height="100%" viewBox="0 0 24 24" fill="none" xmlns="http://www.w3.org/2000/svg">
<g clip-path="url(#clip0_97_1302)">
<path d="M21 6.75188V17.2538H19.4981V8.24812H17.9962V6.74625H5.99812V8.24812H4.49625V17.2481H3V6.75188H4.50188V5.25H19.5038V6.75188H21.0056H21Z" fill="currentColor"/>
<path d="M19.4981 17.2482H4.50189V18.75H19.5038V17.2482H19.4981Z" fill="currentColor"/>
<path d="M13.5018 12.7482H10.5037V14.25H13.5018V12.7482Z" fill="currentColor"/>
<path d="M18.0019 8.24817H16.5V9.75004H18.0019V8.24817Z" fill="currentColor"/>
<path d="M16.5 9.75H14.9981V11.2519H16.5V9.75Z" fill="currentColor"/>
<path d="M14.9982 11.2518H13.4963V12.7537H14.9982V11.2518Z" fill="currentColor"/>
<path d="M10.4982 11.2518H8.99628V12.7537H10.4982V11.2518Z" fill="currentColor"/>
<path d="M7.49998 8.24817H5.99811V9.75004H7.49998V8.24817Z" fill="currentColor"/>
<path d="M9.00188 9.75H7.5V11.2519H9.00188V9.75Z" fill="currentColor"/>
</g>
<defs>
<clipPath id="clip0_97_1302">
<rect width="18" height="13.5" fill="white" transform="translate(3 5.25)"/>
</clipPath>
</defs>
</svg>
