<svg width="100%" height="100%" viewBox="0 0 24 24" fill="none" xmlns="http://www.w3.org/2000/svg">
<path d="M17.1409 8.14246L21.0015 11.997L17.1409 15.8576L15.8561 14.5728L17.1409 13.2879L15.8561 11.997L17.1409 10.7122L15.8561 9.4273L17.1409 8.14246Z" fill="currentColor"/>
<path d="M14.5687 10.7104L13.2831 11.9961L14.5687 13.2817L15.8544 11.9961L14.5687 10.7104Z" fill="currentColor"/>
<path d="M12.0002 10.7093L10.7145 11.995L12.0002 13.2806L13.2858 11.995L12.0002 10.7093Z" fill="currentColor"/>
<path d="M9.43158 10.7081L8.14594 11.9938L9.43158 13.2794L10.7172 11.9938L9.43158 10.7081Z" fill="currentColor"/>
<path d="M6.85273 10.7113L5.56708 11.9969L6.85273 13.2826L8.13837 11.9969L6.85273 10.7113Z" fill="currentColor"/>
<path d="M4.28412 10.7102L2.99847 11.9958L4.28412 13.2815L5.56977 11.9958L4.28412 10.7102Z" fill="currentColor"/>
</svg>
