<svg width="100%" height="100%" viewBox="0 0 24 24" fill="none" xmlns="http://www.w3.org/2000/svg">
<path d="M13.5 3H7.5V4.5H13.5V3Z" fill="#FCFCFA"/>
<path d="M15 4.5H13.5V6H15V4.5Z" fill="#FCFCFA"/>
<path d="M16.5 6H15V7.5H16.5V6Z" fill="#FCFCFA"/>
<path d="M18 7.5H16.5V13.5H18V7.5Z" fill="#FCFCFA"/>
<path d="M16.5 16.5H13.5V15H15V13.5H16.5V16.5Z" fill="#FCFCFA"/>
<path d="M18 16.5H16.5V18H18V16.5Z" fill="#FCFCFA"/>
<path d="M19.5 18H18V19.5H19.5V18Z" fill="#FCFCFA"/>
<path d="M21 19.5H19.5V21H21V19.5Z" fill="#FCFCFA"/>
<path d="M13.5 16.5H7.5V18H13.5V16.5Z" fill="#FCFCFA"/>
<path d="M7.5 15H6V16.5H7.5V15Z" fill="#FCFCFA"/>
<path d="M6 13.5H4.5V15H6V13.5Z" fill="#FCFCFA"/>
<path d="M4.5 7.5H3V13.5H4.5V7.5Z" fill="#FCFCFA"/>
<path d="M6 6H4.5V7.5H6V6Z" fill="#FCFCFA"/>
<path d="M7.5 4.5H6V6H7.5V4.5Z" fill="#FCFCFA"/>
</svg>
