<svg width="100%" height="100%" viewBox="0 0 24 24" fill="none" xmlns="http://www.w3.org/2000/svg">
<path d="M19.9441 7.23192H17.8322V8.29604H16.7681V7.23192H15.7121V6.17599H14.6562V5.11187H15.7121V4.05594H14.6562V3H12.5362V4.05594H11.472V16.7681H10.4161V17.824H8.29604V16.7681H7.24011V12.528H8.29604V11.472H9.36016V8.29604H6.17599V9.35198H5.12005V10.4079H4.06412V11.472H3V16.7681H4.06412V12.528H5.12005V11.472H6.17599V10.4079H7.24011V11.472H6.17599V12.528H5.12005V16.7681H4.06412V18.8799H5.12005V17.824H6.17599V18.8799H7.24011V19.9441H6.17599V21H12.5362V19.9441H13.5921V18.8799H14.6562V17.824H15.7121V10.4079H16.7681V11.472H19.9441V10.4079H21.0082V8.29604H19.9441V7.23192ZM14.6562 16.7681H13.5921V9.35198H14.6562V16.7681ZM17.8322 6.17599H16.7681V7.23192H17.8322V6.17599ZM16.7681 5.11187H15.7121V6.17599H16.7681V5.11187ZM6.17599 18.8799H5.12005V19.9441H6.17599V18.8799Z" fill="#FCFCFA"/>
</svg>
