<svg width="100%" height="100%" viewBox="0 0 24 24" fill="none" xmlns="http://www.w3.org/2000/svg">
<path d="M19.94 7.23192H17.8281V8.29604H16.764V7.23192H15.708V6.17599H14.6521V5.11187H15.708V4.05594H14.6521V3H12.5321V4.05594H11.4679V16.7681H10.412V17.824H8.29195V16.7681H7.23602V12.528H8.29195V11.472H9.35607V8.29604H6.1719V9.35198H5.11596V10.4079H4.06003V11.472H2.99591V16.7681H4.06003V12.528H5.11596V11.472H6.1719V10.4079H7.23602V11.472H6.1719V12.528H5.11596V16.7681H4.06003V18.8799H5.11596V17.824H6.1719V18.8799H7.23602V19.9441H6.1719V21H12.5321V19.9441H13.588V18.8799H14.6521V17.824H15.708V10.4079H16.764V11.472H19.94V10.4079H21.0041V8.29604H19.94V7.23192ZM14.6521 16.7681H13.588V9.35198H14.6521V16.7681ZM17.8281 6.17599H16.764V7.23192H17.8281V6.17599ZM16.764 5.11187H15.708V6.17599H16.764V5.11187ZM6.1719 18.8799H5.11596V19.9441H6.1719V18.8799Z" fill="currentColor"/>
</svg>
