<svg width="100%" height="100%" viewBox="0 0 24 24" fill="none" xmlns="http://www.w3.org/2000/svg">
<path d="M19.9341 7.23H17.8247V8.29312H16.7616V7.23H15.7041V6.1725H14.6466V5.10938H15.7041V4.05188H14.6466V3H12.5259V4.0575H11.4628V16.7644H10.4053V17.8219H8.28469V16.7644H7.22719V12.5288H8.28469V11.4713H9.34782V8.29875H6.16407V9.35625H5.10657V10.4138H4.04907V11.4769H2.99719V16.77H4.06032V12.5344H5.11782V11.4769H6.17532V10.4138H7.23844V11.4769H6.17532V12.5344H5.11782V16.77H4.06032V18.8794H5.11782V17.8219H6.17532V18.8794H7.23844V19.9425H6.17532V21H12.5316V19.9425H13.5891V18.8794H14.6522V17.8219H15.7097V10.4081H16.7672V11.4713H19.9397V10.4081H21.0028V8.29875H19.9397V7.23563L19.9341 7.23ZM14.6466 16.7644H13.5834V9.35062H14.6466V16.7644ZM17.8247 6.1725H16.7616V7.23H17.8247V6.1725ZM16.7616 5.10938H15.7041V6.1725H16.7616V5.10938ZM6.16969 18.8737H5.11219V19.9369H6.16969V18.8737Z" fill="currentColor"/>
</svg>
