<svg width="100%" height="100%" viewBox="0 0 24 24" fill="none" xmlns="http://www.w3.org/2000/svg">
<path d="M5.85188 3H4.14188V17.5406H5.85188V3Z" fill="currentColor"/>
<path d="M19.8581 3.05066H5.67749V4.76628H19.8581V3.05066Z" fill="currentColor"/>
<path d="M19.8581 4.32751H18.1594V15.8756H19.8581V4.32751Z" fill="currentColor"/>
<path d="M16.1006 7.29187H14.3906V12.4612H16.1006V7.29187Z" fill="currentColor"/>
<path d="M10.9763 7.29187H9.26627V12.4612H10.9763V7.29187Z" fill="currentColor"/>
<path d="M18.2325 14.1656H16.095V15.8756H18.2325V14.1656Z" fill="currentColor"/>
<path d="M17.805 15.8756H11.8256V17.5856H17.805V15.8756Z" fill="currentColor"/>
<path d="M13.5356 17.5856H10.1212V19.2956H13.5356V17.5856Z" fill="currentColor"/>
<path d="M11.8256 19.29H7.55624V21H11.8256V19.29Z" fill="currentColor"/>
<path d="M9.26624 15.8756H7.55624V19.29H9.26624V15.8756Z" fill="currentColor"/>
<path d="M7.55625 15.8981H4.14188V17.5856H7.55625V15.8981Z" fill="currentColor"/>
<path d="M7.62937 15.8756H5.58749V16.0331H7.62937V15.8756Z" fill="currentColor"/>
</svg>
