<svg width="100%" height="100%" viewBox="0 0 24 24" fill="none" xmlns="http://www.w3.org/2000/svg">
<path d="M5.85112 3H4.1431V17.5413H5.85112V3Z" fill="currentColor"/>
<path d="M19.8569 3.05124H5.67776V4.76439H19.8569V3.05124Z" fill="currentColor"/>
<path d="M19.8569 4.3297H18.1566V15.8759H19.8569V4.3297Z" fill="currentColor"/>
<path d="M16.0993 7.29312H14.3912V12.4599H16.0993V7.29312Z" fill="currentColor"/>
<path d="M10.9752 7.29312H9.26717V12.4599H10.9752V7.29312Z" fill="currentColor"/>
<path d="M18.2343 14.1679H16.0993V15.8759H18.2343V14.1679Z" fill="currentColor"/>
<path d="M17.8073 15.8759H11.8292V17.584H17.8073V15.8759Z" fill="currentColor"/>
<path d="M13.5372 17.584H10.1212V19.292H13.5372V17.584Z" fill="currentColor"/>
<path d="M11.8292 19.292H7.55914V21H11.8292V19.292Z" fill="currentColor"/>
<path d="M9.26717 15.8759H7.55914V19.292H9.26717V15.8759Z" fill="currentColor"/>
<path d="M7.55914 15.8956H4.1431V17.584H7.55914V15.8956Z" fill="currentColor"/>
<path d="M7.62832 15.8759H5.58808V16.0356H7.62832V15.8759Z" fill="currentColor"/>
</svg>
